<svg xmlns="http://www.w3.org/2000/svg" width="584" height="137" fill="none" style=""><rect id="backgroundrect" width="100%" height="100%" x="0" y="0" fill="none" stroke="none"/>
  <defs>
    <linearGradient id="paint0_linear" x1="0.7916350538713218" y1="0.22057664133336422" x2="0.05098211678275227" y2="0.7967153396049556">
      <stop stop-color="#F1C64B"/>
      <stop offset="0.328125" stop-color="#CB3F7A"/>
      <stop offset="0.723958" stop-color="#783DA9"/>
      <stop offset="0.932292" stop-color="#3D48A9"/>
    </linearGradient>
  </defs>
<g class="currentLayer" style=""><title>Layer 1</title><path d="M185.287 39.2266V92H177.323V39.2266H185.287ZM196.498 58.709H204.223V61.7852C206.911 59.1191 209.942 57.7861 213.314 57.7861C217.188 57.7861 220.207 59.0052 222.372 61.4434C224.241 63.5169 225.175 66.9007 225.175 71.5947V92H217.45V73.4062C217.45 70.125 216.994 67.8577 216.083 66.6045C215.194 65.3285 213.576 64.6904 211.229 64.6904C208.677 64.6904 206.866 65.5335 205.795 67.2197C204.747 68.8831 204.223 71.7884 204.223 75.9355V92H196.498V58.709ZM254.262 64.3828L247.904 67.7666C246.902 65.7158 245.66 64.6904 244.179 64.6904C243.472 64.6904 242.868 64.9297 242.367 65.4082C241.866 65.8639 241.615 66.4564 241.615 67.1855C241.615 68.4616 243.096 69.7262 246.059 70.9795C250.137 72.734 252.883 74.3519 254.296 75.833C255.709 77.3141 256.415 79.3079 256.415 81.8145C256.415 85.0273 255.23 87.7161 252.86 89.8809C250.559 91.9316 247.779 92.957 244.521 92.957C238.938 92.957 234.984 90.234 232.66 84.7881L239.223 81.7461C240.134 83.3411 240.829 84.3551 241.308 84.7881C242.242 85.654 243.358 86.0869 244.657 86.0869C247.255 86.0869 248.554 84.902 248.554 82.5322C248.554 81.165 247.551 79.889 245.546 78.7041C244.771 78.3167 243.996 77.9408 243.222 77.5762C242.447 77.2116 241.661 76.8356 240.863 76.4482C238.63 75.3545 237.058 74.2607 236.146 73.167C234.984 71.777 234.403 69.9883 234.403 67.8008C234.403 64.9069 235.395 62.5143 237.377 60.623C239.405 58.7318 241.866 57.7861 244.76 57.7861C249.021 57.7861 252.188 59.985 254.262 64.3828ZM271.283 65.8867V92H263.593V65.8867H260.312V58.709H263.593V46.5068H271.283V58.709H277.265V65.8867H271.283ZM307.65 58.709H315.375V92H307.65V88.5137C304.483 91.4759 301.076 92.957 297.431 92.957C292.828 92.957 289.022 91.2936 286.015 87.9668C283.03 84.5716 281.537 80.3333 281.537 75.252C281.537 70.2617 283.03 66.1032 286.015 62.7764C289 59.4495 292.737 57.7861 297.226 57.7861C301.099 57.7861 304.574 59.3812 307.65 62.5713V58.709ZM289.398 75.252C289.398 78.4421 290.253 81.0397 291.962 83.0449C293.716 85.0729 295.927 86.0869 298.593 86.0869C301.441 86.0869 303.743 85.1071 305.497 83.1475C307.252 81.1195 308.129 78.5446 308.129 75.4229C308.129 72.3011 307.252 69.7262 305.497 67.6982C303.743 65.7158 301.464 64.7246 298.661 64.7246C296.018 64.7246 293.808 65.7272 292.03 67.7324C290.276 69.7604 289.398 72.2669 289.398 75.252ZM350.99 60.1445V70.3643C349.236 68.2223 347.663 66.7526 346.273 65.9551C344.906 65.1348 343.3 64.7246 341.454 64.7246C338.56 64.7246 336.156 65.7386 334.242 67.7666C332.328 69.7946 331.371 72.3353 331.371 75.3887C331.371 78.5104 332.294 81.0739 334.14 83.0791C336.008 85.0843 338.389 86.0869 341.283 86.0869C343.129 86.0869 344.758 85.6882 346.171 84.8906C347.538 84.1159 349.145 82.612 350.99 80.3789V90.5303C347.868 92.1481 344.747 92.957 341.625 92.957C336.475 92.957 332.169 91.2936 328.705 87.9668C325.242 84.6172 323.51 80.4587 323.51 75.4912C323.51 70.5238 325.264 66.3311 328.773 62.9131C332.283 59.4951 336.589 57.7861 341.693 57.7861C344.975 57.7861 348.074 58.5723 350.99 60.1445ZM382.982 58.709H390.707V92H382.982V88.5137C379.815 91.4759 376.409 92.957 372.763 92.957C368.16 92.957 364.354 91.2936 361.347 87.9668C358.362 84.5716 356.869 80.3333 356.869 75.252C356.869 70.2617 358.362 66.1032 361.347 62.7764C364.332 59.4495 368.069 57.7861 372.558 57.7861C376.431 57.7861 379.906 59.3812 382.982 62.5713V58.709ZM364.73 75.252C364.73 78.4421 365.585 81.0397 367.294 83.0449C369.049 85.0729 371.259 86.0869 373.925 86.0869C376.773 86.0869 379.075 85.1071 380.829 83.1475C382.584 81.1195 383.461 78.5446 383.461 75.4229C383.461 72.3011 382.584 69.7262 380.829 67.6982C379.075 65.7158 376.796 64.7246 373.993 64.7246C371.35 64.7246 369.14 65.7272 367.362 67.7324C365.608 69.7604 364.73 72.2669 364.73 75.252ZM400.414 58.709H408.104V61.7852C409.586 60.2357 410.85 59.1875 411.898 58.6406C413.015 58.071 414.416 57.7861 416.103 57.7861C419.862 57.7861 422.836 59.4268 425.023 62.708C427.439 59.4268 430.709 57.7861 434.833 57.7861C442.33 57.7861 446.078 62.332 446.078 71.4238V92H438.354V73.5088C438.354 70.3187 437.966 68.0628 437.191 66.7412C436.394 65.3968 435.084 64.7246 433.261 64.7246C431.142 64.7246 429.592 65.5221 428.612 67.1172C427.655 68.7122 427.177 71.2757 427.177 74.8076V92H419.452V73.6113C419.452 67.6868 417.743 64.7246 414.325 64.7246C412.16 64.7246 410.577 65.5335 409.574 67.1514C408.594 68.7692 408.104 71.3213 408.104 74.8076V92H400.414V58.709ZM487.982 91.2139C487.982 92.7861 487.925 94.1647 487.812 95.3496C487.72 96.5573 487.584 97.6169 487.401 98.5283C486.854 101.035 485.784 103.188 484.188 104.988C481.181 108.452 477.045 110.184 471.781 110.184C467.338 110.184 463.681 108.987 460.81 106.595C457.847 104.134 456.138 100.727 455.683 96.375H463.407C463.703 98.0156 464.193 99.2803 464.877 100.169C466.472 102.243 468.796 103.279 471.85 103.279C477.478 103.279 480.292 99.8271 480.292 92.9229V88.2744C477.239 91.3962 473.718 92.957 469.73 92.957C465.196 92.957 461.482 91.3164 458.588 88.0352C455.671 84.7083 454.213 80.5498 454.213 75.5596C454.213 70.7061 455.569 66.5817 458.28 63.1865C461.197 59.5863 465.048 57.7861 469.833 57.7861C474.026 57.7861 477.512 59.347 480.292 62.4688V58.709H487.982V91.2139ZM480.6 75.4229C480.6 72.1872 479.734 69.6009 478.002 67.6641C476.247 65.6816 474.003 64.6904 471.269 64.6904C468.352 64.6904 466.05 65.7728 464.364 67.9375C462.838 69.8743 462.074 72.3809 462.074 75.457C462.074 78.4876 462.838 80.9714 464.364 82.9082C466.028 85.0273 468.329 86.0869 471.269 86.0869C474.208 86.0869 476.532 85.016 478.241 82.874C479.813 80.9372 480.6 78.4535 480.6 75.4229ZM505.38 58.709V92H497.689V58.709H505.38ZM496.527 44.8662C496.527 43.5218 497.017 42.3597 497.997 41.3799C498.977 40.4001 500.15 39.9102 501.518 39.9102C502.908 39.9102 504.092 40.4001 505.072 41.3799C506.052 42.3369 506.542 43.5104 506.542 44.9004C506.542 46.2904 506.052 47.4753 505.072 48.4551C504.115 49.4349 502.942 49.9248 501.552 49.9248C500.162 49.9248 498.977 49.4349 497.997 48.4551C497.017 47.4753 496.527 46.279 496.527 44.8662ZM515.121 58.709H522.812V61.6826C524.224 60.2015 525.478 59.1875 526.571 58.6406C527.688 58.071 529.009 57.7861 530.536 57.7861C532.564 57.7861 534.683 58.4469 536.894 59.7686L533.373 66.8096C531.915 65.7614 530.491 65.2373 529.101 65.2373C524.908 65.2373 522.812 68.4046 522.812 74.7393V92H515.121V58.709ZM550.087 34.2705V92H542.396V34.2705H550.087ZM579.174 64.3828L572.816 67.7666C571.814 65.7158 570.572 64.6904 569.091 64.6904C568.384 64.6904 567.781 64.9297 567.279 65.4082C566.778 65.8639 566.527 66.4564 566.527 67.1855C566.527 68.4616 568.008 69.7262 570.971 70.9795C575.049 72.734 577.795 74.3519 579.208 75.833C580.621 77.3141 581.327 79.3079 581.327 81.8145C581.327 85.0273 580.142 87.7161 577.772 89.8809C575.471 91.9316 572.691 92.957 569.433 92.957C563.85 92.957 559.896 90.234 557.572 84.7881L564.135 81.7461C565.046 83.3411 565.741 84.3551 566.22 84.7881C567.154 85.654 568.271 86.0869 569.569 86.0869C572.167 86.0869 573.466 84.902 573.466 82.5322C573.466 81.165 572.463 79.889 570.458 78.7041C569.683 78.3167 568.909 77.9408 568.134 77.5762C567.359 77.2116 566.573 76.8356 565.775 76.4482C563.542 75.3545 561.97 74.2607 561.059 73.167C559.896 71.777 559.315 69.9883 559.315 67.8008C559.315 64.9069 560.307 62.5143 562.289 60.623C564.317 58.7318 566.778 57.7861 569.672 57.7861C573.933 57.7861 577.1 59.985 579.174 64.3828Z" fill="#ffffff" id="svg_1" class="selected" fill-opacity="1"/><circle cx="68.5" cy="68.5" r="68.5" fill="#C4C4C4" id="svg_2"/><circle cx="68.5" cy="68.5" r="68.5" fill="url(#paint0_linear)" id="svg_3"/><path d="M103.531 51.6586L93.328 57.5776V45.3701C93.328 42.5351 91.0404 40.2302 88.2267 40.2302H41.0394C38.2257 40.2302 35.9381 42.5351 35.9381 45.3701V91.6299C35.9381 94.4649 38.2257 96.7698 41.0394 96.7698H88.2267C91.0404 96.7698 93.328 94.4649 93.328 91.6299V79.4224L103.531 85.3414C105.228 86.3293 107.357 85.0925 107.357 83.1248V53.8832C107.357 51.9075 105.228 50.6707 103.531 51.6586ZM87.589 85.9874C87.589 88.7488 85.3504 90.9874 82.589 90.9874H46.6771C43.9157 90.9874 41.6771 88.7488 41.6771 85.9874V51.0126C41.6771 48.2512 43.9157 46.0126 46.6771 46.0126H82.589C85.3504 46.0126 87.589 48.2512 87.589 51.0126V85.9874ZM101.618 77.5753L93.328 72.7726V64.2354L101.618 59.4247V77.5753Z" fill="white" id="svg_4"/><circle cx="48.95719909667969" cy="53.993099212646484" r="4.0916900634765625" fill="white" id="svg_5"/></g></svg>