<svg width="16" height="16" viewBox="0 0 16 16" fill="none" xmlns="http://www.w3.org/2000/svg">
<g clip-path="url(#clip0)">
<path d="M9.67468 15.8237C13.9953 14.8989 16.7482 10.6467 15.8235 6.32608C14.8987 2.00545 10.6465 -0.747461 6.32588 0.177285C2.00525 1.10203 -0.74766 5.35425 0.177085 9.67488C1.10183 13.9955 5.35405 16.7484 9.67468 15.8237Z" fill="#FFB747"/>
<path d="M6.18454 7.90493C5.99939 7.90493 5.85024 7.75321 5.85024 7.57063C5.85024 7.38806 5.7011 7.23634 5.51852 7.23634C5.33594 7.23634 5.18679 7.38548 5.18422 7.56806C5.18422 7.75064 5.03507 7.89979 4.84992 7.89979C4.84992 7.89979 4.84992 7.89979 4.84735 7.89979C4.6622 7.89979 4.51562 7.74807 4.51562 7.56549C4.5182 7.01519 4.96564 6.57031 5.51595 6.57031C5.51852 6.57031 5.51852 6.57031 5.51852 6.57031C5.78596 6.57288 6.03539 6.67575 6.22569 6.86604C6.41341 7.05633 6.51627 7.30834 6.51627 7.57578C6.51627 7.75578 6.36712 7.90493 6.18454 7.90493Z" fill="#5F4137"/>
<path d="M11.1834 7.90493C10.9983 7.90493 10.8491 7.75321 10.8491 7.57063C10.8491 7.38806 10.7 7.23634 10.5174 7.23634C10.3348 7.23634 10.1857 7.38548 10.1831 7.56806C10.1831 7.75321 10.0365 7.89722 9.84882 7.89979C9.66367 7.89979 9.51709 7.74807 9.51709 7.56549C9.51966 7.01519 9.96711 6.57031 10.5174 6.57031C10.52 6.57031 10.52 6.57031 10.52 6.57031C11.0729 6.57288 11.5177 7.0229 11.5152 7.57321C11.5177 7.75578 11.3686 7.90493 11.1834 7.90493Z" fill="#5F4137"/>
<path d="M8.25459 12.7805C8.25202 12.7805 8.25202 12.7805 8.24945 12.7805C8.0643 12.7805 7.91772 12.6287 7.91772 12.4462C7.91772 12.2636 8.06687 12.1144 8.25202 12.1144H8.25459C8.52717 12.1144 8.7509 11.8933 8.7509 11.6207C8.7509 11.3481 8.52975 11.1244 8.25717 11.1218C8.07202 11.1218 7.92544 10.9701 7.92544 10.7875C7.92544 10.605 8.07459 10.4558 8.25974 10.4558C8.25974 10.4558 8.25974 10.4558 8.26231 10.4558C8.90262 10.4584 9.42206 10.983 9.42206 11.6233C9.41949 11.9344 9.29863 12.225 9.07748 12.4436C8.85376 12.6622 8.56318 12.7805 8.25459 12.7805Z" fill="#5F4137"/>
<path d="M8.25459 14.4417C8.25202 14.4417 8.25202 14.4417 8.24945 14.4417C8.0643 14.4417 7.91772 14.29 7.91772 14.1074C7.91772 13.9223 8.07716 13.7834 8.25202 13.7757H8.25459C8.52717 13.7757 8.7509 13.5545 8.7509 13.282C8.7509 13.0094 8.52975 12.7857 8.25716 12.7831C8.07202 12.7831 7.92544 12.6314 7.92544 12.4488C7.92544 12.2662 8.07459 12.1171 8.25974 12.1171C8.25974 12.1171 8.25974 12.1171 8.26231 12.1171C8.90262 12.1196 9.42206 12.6442 9.42206 13.2845C9.41949 13.5957 9.29863 13.8863 9.07748 14.1048C8.85376 14.3209 8.56318 14.4417 8.25459 14.4417Z" fill="#5F4137"/>
<path d="M15.7378 12.7343C15.3238 12.2585 14.47 12.1531 13.6497 12.5028C13.6343 11.6105 13.1868 10.8776 12.5825 10.6925C11.7056 10.4276 10.8236 11.4202 10.5176 12.1557C10.0702 13.2331 10.5047 14.6269 11.6105 15.6581C13.0043 16.2418 14.4546 16.067 15.2518 15.2158C15.7944 14.6372 16.3395 13.426 15.7378 12.7343Z" fill="#FD3C04"/>
</g>
<defs>
<clipPath id="clip0">
<rect width="16" height="16" fill="white"/>
</clipPath>
</defs>
</svg>
