<svg width="16" height="16" viewBox="0 0 16 16" fill="none" xmlns="http://www.w3.org/2000/svg">
<g clip-path="url(#clip0)">
<path d="M13.6567 13.657C16.7808 10.5329 16.7808 5.46761 13.6567 2.34345C10.5325 -0.780718 5.46724 -0.780718 2.34308 2.34345C-0.781085 5.46761 -0.781085 10.5329 2.34308 13.657C5.46724 16.7812 10.5325 16.7812 13.6567 13.657Z" fill="#FFB747"/>
<path d="M6.18454 9.33718C5.99939 9.33718 5.85024 9.18545 5.85024 9.00288C5.85024 8.8203 5.7011 8.66858 5.51852 8.66858C5.51852 8.66858 5.51852 8.66858 5.51595 8.66858C5.42851 8.66858 5.34365 8.70201 5.28194 8.7663C5.21765 8.82801 5.18422 8.91287 5.18422 9.00288C5.18422 9.18545 5.03507 9.3346 4.84992 9.3346C4.84992 9.3346 4.84992 9.3346 4.84735 9.3346C4.6622 9.3346 4.51562 9.18288 4.51562 9.00031C4.51562 8.73287 4.62106 8.48343 4.81135 8.29571C4.99907 8.10799 5.25108 8.00513 5.51595 8.00513C5.51852 8.00513 5.51852 8.00513 5.52109 8.00513C5.78853 8.0077 6.03796 8.11056 6.22569 8.30085C6.41341 8.49114 6.51627 8.74315 6.51627 9.01059C6.51627 9.18803 6.36712 9.33718 6.18454 9.33718Z" fill="#5F4137"/>
<path d="M11.1836 9.33718C10.9984 9.33718 10.8493 9.18546 10.8493 9.00288C10.8493 8.82031 10.7001 8.66859 10.5175 8.66859C10.5175 8.66859 10.5175 8.66859 10.515 8.66859C10.4275 8.66859 10.3427 8.70202 10.281 8.76631C10.2167 8.82802 10.1832 8.91288 10.1832 9.00288C10.1832 9.18546 10.0341 9.33461 9.84895 9.33461C9.84895 9.33461 9.84895 9.33461 9.84637 9.33461C9.66123 9.33461 9.51465 9.18289 9.51465 9.00031C9.51465 8.73288 9.62008 8.48344 9.81037 8.29315C9.99809 8.10542 10.2501 8.00256 10.515 8.00256C10.5175 8.00256 10.5175 8.00256 10.5201 8.00256C11.0704 8.00513 11.5179 8.45515 11.5153 9.00546C11.5179 9.18803 11.3687 9.33718 11.1836 9.33718Z" fill="#5F4137"/>
<path d="M8.00513 13.2356C7.35968 13.233 6.83509 13.7525 6.83252 14.3979L9.16489 14.4082C9.17003 13.7628 8.65058 13.2382 8.00513 13.2356Z" fill="#5F4137"/>
<path d="M15.0588 13.6908C15.3674 14.6063 14.8762 15.5989 13.9607 15.9075C13.0453 16.216 12.0527 15.7249 11.7441 14.8094C11.4355 13.894 12.171 10.6024 12.171 10.6024C12.171 10.6024 14.7502 12.7754 15.0588 13.6908Z" fill="#01A1FE"/>
</g>
<defs>
<clipPath id="clip0">
<rect width="16" height="16" fill="white"/>
</clipPath>
</defs>
</svg>
