<svg xmlns="http://www.w3.org/2000/svg" viewBox="0 0 598 470.49" xmlns:v="https://vecta.io/nano"><linearGradient id="A" gradientUnits="userSpaceOnUse" x1="328.444" y1="333.507" x2="304.499" y2="163.126"><stop offset=".307" stop-color="#d8d8d8"/><stop offset=".537" stop-color="#d6d6d6"/><stop offset=".62" stop-color="#cfcfcf"/><stop offset=".679" stop-color="#c4c4c4"/><stop offset=".726" stop-color="#b3b3b3"/><stop offset=".735" stop-color="#afafaf"/></linearGradient><path d="M174.28 312.44L0 248 598 0z" fill="url(#A)"/><linearGradient id="B" gradientUnits="userSpaceOnUse" x1="456.791" y1="303.302" x2="365.85" y2="173.426"><stop offset=".096" stop-color="#898989"/><stop offset=".57" stop-color="#a3a3a3"/><stop offset=".884" stop-color="#b7b7b7"/></linearGradient><path d="M214.42 462.14l-40.14-149.7L598 0z" fill="url(#B)"/><linearGradient id="C" gradientUnits="userSpaceOnUse" x1="357.557" y1="156.146" x2="454.867" y2="305.991"><stop offset=".426" stop-color="#afafaf"/><stop offset=".834" stop-color="#e5e5e5"/></linearGradient><path d="M214.42 462.14L218 330 598 0z" fill="url(#C)"/><linearGradient id="D" gradientUnits="userSpaceOnUse" x1="313.554" y1="247.833" x2="605.912" y2="-6.31"><stop offset="0" stop-color="#bababa"/><stop offset="1" stop-color="#bdbdbd"/></linearGradient><path d="M324.49 275.82l-7.38-68.57L598 0z" fill="url(#D)"/><linearGradient id="E" gradientUnits="userSpaceOnUse" x1="222.033" y1="341.711" x2="663.339" y2="189.758"><stop offset=".121" stop-color="#d8d8d8"/><stop offset=".259" stop-color="#d6d6d6"/><stop offset=".309" stop-color="#cfcfcf"/><stop offset=".344" stop-color="#c4c4c4"/><stop offset=".373" stop-color="#b3b3b3"/><stop offset=".397" stop-color="#9d9d9d"/><stop offset=".413" stop-color="#898989"/></linearGradient><path d="M464.47 470.49L218 330 598 0z" fill="url(#E)"/><linearGradient id="F" gradientUnits="userSpaceOnUse" x1="551.54" y1="-8.505" x2="37.103" y2="300.6"><stop offset=".463" stop-color="#e5e5e5"/><stop offset="1" stop-color="#c9c9c9"/></linearGradient><path d="M317.11 207.25L0 248 598 0z" fill="url(#F)"/><linearGradient id="G" gradientUnits="userSpaceOnUse" x1="349.078" y1="404.628" x2="645.857" y2="86.371"><stop offset="0" stop-color="#c9c9c9"/><stop offset=".457" stop-color="#e4e4e4"/><stop offset=".466" stop-color="#e5e5e5"/></linearGradient><path d="M464.47 470.49L343.32 221.2 598 0z" fill="url(#G)"/></svg>