<svg xmlns="http://www.w3.org/2000/svg" viewBox="0 0 50 50" fill="none" stroke="#191919" stroke-width="1.655" stroke-linejoin="round" stroke-miterlimit="8.8276" xmlns:v="https://vecta.io/nano"><path d="M27.61 10.98a21.17 21.17 0 0 0-3.37 2.74c-1.55 1.55-1.51 1.64-2.89 3.22m6.26-5.96c7.41-4.9 16.5-4.9 16.5-4.9s0 9.09-4.9 16.5m-11.6-11.6l11.6 11.6m0 0a21.17 21.17 0 0 1-2.74 3.37c-1.55 1.55-1.64 1.51-3.22 2.89m-20-1.63L12 29.01l9.17 9.17s.68-.45 1.8-1.25m-9.72-9.72l-7.37-7.37 12.23-6.11 3.22 3.22m-8.08 10.26c1.57-2.2 4.49-6.14 8.08-10.27m1.65 20l7.37 7.37 6.11-12.23-3.22-3.22m-10.26 8.08c2.2-1.57 6.14-4.49 10.27-8.08" stroke-linecap="round"/><path d="M10.84 39.26c.75-3.07 2.17-4.32 3.24-3.24 1.09 1.08-.17 2.48-3.24 3.24z"/></svg>