<svg xmlns="http://www.w3.org/2000/svg" viewBox="0 0 50 50" fill="none" stroke="#fff" stroke-width="2" stroke-linecap="round" stroke-linejoin="round" stroke-miterlimit="10.6667" xmlns:v="https://vecta.io/nano"><path d="M3.4 36.78c0-4.42 5.89-4.42 8.83-7.36 1.47-1.47-2.94-1.47-2.94-8.83 0-4.91 1.96-7.36 5.89-7.36s5.89 2.45 5.89 7.36c0 7.36-4.42 7.36-2.94 8.83 2.94 2.94 8.83 2.94 8.83 7.36m-.41-4.46c.97-.35 1.76-.67 2.38-.97 1.08-.52 2.12-1.11 2.94-1.93 1.47-1.47-2.94-1.47-2.94-8.83 0-4.91 1.96-7.36 5.89-7.36s5.89 2.45 5.89 7.36c0 7.36-4.42 7.36-2.94 8.83 2.94 2.94 8.83 2.94 8.83 7.36"/><path d="M25 32.85l1.55-.54"/></svg>