<svg width="50" height="42" viewBox="0 0 50 42" fill="none" xmlns="http://www.w3.org/2000/svg">
<path d="M14.4053 7.02051L23.0196 11.0659C23.0196 11.0659 20.3858 18.6187 18.049 23.6804C15.7123 28.7422 12.722 28.224 10.3457 27.1081C7.96929 25.9921 5.65234 24.0192 7.9891 18.9774C10.3259 13.8957 14.4053 7.02051 14.4053 7.02051Z" stroke="white" stroke-width="1.8" stroke-miterlimit="10"/>
<path d="M4.64246 39.3838L10.3457 27.0881" stroke="white" stroke-width="1.8" stroke-miterlimit="10"/>
<path d="M8.24661 41.0576L1.05811 37.6897" stroke="white" stroke-width="1.8" stroke-miterlimit="10" stroke-linecap="round"/>
<path d="M35.5945 7.02051L26.9802 11.0659C26.9802 11.0659 29.614 18.6187 31.9508 23.6804C34.2875 28.7422 37.2778 28.224 39.6542 27.1081C42.0305 25.9921 44.3475 24.0192 42.0107 18.9774C39.6542 13.8957 35.5945 7.02051 35.5945 7.02051Z" stroke="white" stroke-width="1.8" stroke-miterlimit="10"/>
<path d="M45.3574 39.3838L39.6542 27.0881" stroke="white" stroke-width="1.8" stroke-miterlimit="10"/>
<path d="M41.7533 41.0576L48.9418 37.6897" stroke="white" stroke-width="1.8" stroke-miterlimit="10" stroke-linecap="round"/>
<path d="M25.0002 4.92801V0.942383" stroke="#F80F71" stroke-width="1.8" stroke-miterlimit="10" stroke-linecap="round"/>
<path d="M28.1686 6.52242L30.9608 3.69263" stroke="#F80F71" stroke-width="1.8" stroke-miterlimit="10" stroke-linecap="round"/>
<path d="M21.8314 6.52242L19.0392 3.69263" stroke="#F80F71" stroke-width="1.8" stroke-miterlimit="10" stroke-linecap="round"/>
<path d="M13.1182 14.4937C13.1182 14.4937 13.9103 16.0879 15.4945 16.0879C17.0788 16.0879 17.8709 15.2908 19.4551 15.2908C21.0394 15.2908 21.0394 16.0879 21.0394 16.0879" stroke="white" stroke-width="1.8" stroke-miterlimit="10" stroke-linecap="round"/>
<path d="M40.0503 15.2908C40.0503 15.2908 39.2581 14.4937 37.6739 14.4937C36.0896 14.4937 35.2975 15.2908 33.7133 15.2908C32.129 15.2908 31.3369 14.4937 31.3369 14.4937" stroke="white" stroke-width="1.8" stroke-miterlimit="10" stroke-linecap="round"/>
</svg>
