<svg width="50" height="49" viewBox="0 0 50 49" fill="none" xmlns="http://www.w3.org/2000/svg">
<g clip-path="url(#clip0)">
<path d="M39.6987 20.6514C39.6987 20.6514 45.4216 22.762 46.7469 24.4505C49.518 28.0687 49.2168 35.9685 48.5541 40.25C48.012 43.8079 49.1566 48.2101 49.1566 48.2101" stroke="white" stroke-width="1.80911" stroke-miterlimit="10" stroke-linecap="round" stroke-linejoin="round"/>
<path d="M27.2288 33.8582C27.2288 41.3358 33.7348 42.8434 34.8191 48.1501" stroke="white" stroke-width="1.80911" stroke-miterlimit="10" stroke-linecap="round" stroke-linejoin="round"/>
<path d="M29.6997 27.7672C25.2419 31.8679 20.8443 34.5815 20.4829 34.8227L20.0009 35.1242L19.519 34.8227C18.7359 34.3403 0.904541 23.365 0.904541 11.7265C0.904541 6.11823 5.48285 1.53516 11.0853 1.53516C14.8804 1.53516 18.2539 3.64578 20.0009 6.84187C21.7479 3.64578 25.1817 1.53516 28.9166 1.53516C34.519 1.53516 39.0973 6.11823 39.0973 11.7265C39.0973 15.405 37.2901 19.0232 34.8202 22.2193" stroke="#F80F71" stroke-width="1.80911" stroke-miterlimit="10" stroke-linecap="round" stroke-linejoin="round"/>
<path d="M28.9155 7.80664C31.0842 7.80664 32.8312 9.55544 32.8312 11.7264" stroke="#F80F71" stroke-width="1.80911" stroke-miterlimit="10" stroke-linecap="round" stroke-linejoin="round"/>
<path d="M41.2649 28.7323C39.3975 25.8377 37.3493 25.5965 35.9637 23.7271C33.1927 20.0486 33.4939 20.2898 30.9637 16.9731C29.4577 14.9831 28.4336 13.777 26.4457 14.6816C24.8192 15.4655 24.7589 16.7319 25.2409 18.4807C25.8433 20.5913 29.7589 27.7071 30.5421 29.3956C30.7228 29.7574 30.783 30.1193 30.783 30.5414C30.6023 32.652 30.2409 38.7427 37.9517 42.18" stroke="white" stroke-width="1.80911" stroke-miterlimit="10" stroke-linecap="round" stroke-linejoin="round"/>
</g>
<defs>
<clipPath id="clip0">
<rect width="50" height="49" fill="white"/>
</clipPath>
</defs>
</svg>
