<svg width="297" height="40" viewBox="0 0 297 40" fill="none" xmlns="http://www.w3.org/2000/svg">
<path d="M59.5511 9.05149C59.7261 8.84467 59.8136 8.59807 59.8136 8.3117C59.8136 8.02533 59.7261 7.77078 59.5511 7.54805C59.392 7.30941 59.1533 7.19009 58.8351 7.19009H56.8305V9.36173H58.8351C59.1533 9.36173 59.392 9.25832 59.5511 9.05149ZM56.8305 13.347V15.6857H59.0499C59.4158 15.6857 59.6863 15.5664 59.8613 15.3278C60.0522 15.0732 60.1477 14.7948 60.1477 14.4925V14.4687C60.1477 14.1664 60.0443 13.9039 59.8374 13.6811C59.6465 13.4584 59.384 13.347 59.0499 13.347H56.8305ZM59.6704 19.7904H51.5088C51.3338 19.7904 51.1827 19.7267 51.0554 19.5995C50.9281 19.4722 50.8645 19.321 50.8645 19.146V3.72978C50.8645 3.55477 50.9281 3.40363 51.0554 3.27636C51.1827 3.14908 51.3338 3.08544 51.5088 3.08544H59.4317C61.6909 3.08544 63.3534 3.49909 64.4194 4.32638C65.5012 5.13776 66.0421 6.37075 66.0421 8.02533V8.09692C66.0421 8.78103 65.8433 9.39354 65.4455 9.93447C65.0478 10.4595 64.6103 10.8413 64.133 11.0799C64.7694 11.3345 65.3023 11.7879 65.7319 12.4402C66.1774 13.0766 66.4001 13.7766 66.4001 14.5403C66.4001 18.0403 64.1569 19.7904 59.6704 19.7904Z" fill="#F80F71"/>
<path d="M74.9398 15.1369H82.29C82.465 15.1369 82.6161 15.2005 82.7434 15.3278C82.8707 15.455 82.9343 15.6062 82.9343 15.7812V19.146C82.9343 19.321 82.8707 19.4722 82.7434 19.5995C82.6161 19.7267 82.465 19.7904 82.29 19.7904H69.8567C69.6817 19.7904 69.5306 19.7267 69.4033 19.5995C69.276 19.4722 69.2124 19.321 69.2124 19.146V3.72978C69.2124 3.55477 69.276 3.40363 69.4033 3.27636C69.5306 3.14908 69.6817 3.08544 69.8567 3.08544H82.0991C82.2741 3.08544 82.4252 3.14908 82.5525 3.27636C82.6798 3.40363 82.7434 3.55477 82.7434 3.72978V7.09463C82.7434 7.26963 82.6798 7.42077 82.5525 7.54805C82.4252 7.67532 82.2741 7.73896 82.0991 7.73896H74.9398V9.2424H81.574C81.7491 9.2424 81.9002 9.30604 82.0275 9.43332C82.1547 9.5606 82.2184 9.71173 82.2184 9.88674V12.9891C82.2184 13.1641 82.1547 13.3152 82.0275 13.4425C81.9002 13.5698 81.7491 13.6334 81.574 13.6334H74.9398V15.1369Z" fill="#F80F71"/>
<path d="M85.9958 8.33557C85.9958 6.7128 86.664 5.39232 88.0004 4.37411C89.3527 3.3559 91.1186 2.8468 93.2982 2.8468C95.4937 2.8468 97.2835 3.37977 98.6676 4.4457C100.068 5.51164 100.768 6.6253 100.768 7.78669C100.768 7.92987 100.712 8.05715 100.601 8.16852C100.505 8.26397 100.394 8.3117 100.267 8.3117H95.4937C95.1278 8.3117 94.7937 8.17647 94.4914 7.90601C94.1891 7.63555 93.7834 7.50032 93.2743 7.50032C92.5107 7.50032 92.1289 7.72305 92.1289 8.16852C92.1289 8.40716 92.3118 8.60603 92.6777 8.76512C93.0596 8.92422 93.7596 9.0674 94.7778 9.19468C97.1483 9.49696 98.8347 10.0538 99.837 10.8652C100.855 11.6606 101.364 12.8777 101.364 14.5164C101.364 16.1392 100.617 17.4676 99.1211 18.5017C97.6415 19.5199 95.7005 20.029 93.2982 20.029C90.8959 20.029 89.0106 19.5358 87.6424 18.5494C86.2742 17.5631 85.5901 16.3619 85.5901 14.9459C85.5901 14.8028 85.6378 14.6834 85.7333 14.588C85.8446 14.4766 85.9719 14.4209 86.1151 14.4209H90.6493C90.9834 14.4209 91.3493 14.58 91.747 14.8982C92.1607 15.2164 92.7255 15.3755 93.4414 15.3755C94.6346 15.3755 95.2312 15.1528 95.2312 14.7073C95.2312 14.4209 95.0164 14.2062 94.5869 14.063C94.1573 13.9039 93.3459 13.7448 92.1527 13.5857C88.0481 13.0448 85.9958 11.2947 85.9958 8.33557Z" fill="#F80F71"/>
<path d="M104.363 3.08544H118.348C118.523 3.08544 118.674 3.14908 118.801 3.27636C118.928 3.40363 118.992 3.55477 118.992 3.72978V7.57191C118.992 7.74691 118.928 7.89806 118.801 8.02533C118.674 8.15261 118.523 8.21625 118.348 8.21625H114.386V19.146C114.386 19.321 114.322 19.4722 114.195 19.5995C114.068 19.7267 113.917 19.7904 113.742 19.7904H108.969C108.794 19.7904 108.643 19.7267 108.516 19.5995C108.388 19.4722 108.325 19.321 108.325 19.146V8.21625H104.363C104.188 8.21625 104.037 8.15261 103.91 8.02533C103.782 7.89806 103.719 7.74691 103.719 7.57191V3.72978C103.719 3.55477 103.782 3.40363 103.91 3.27636C104.037 3.14908 104.188 3.08544 104.363 3.08544Z" fill="#F80F71"/>
<path d="M45.3985 22.7882H50.577C51.1497 22.7882 51.5077 23.0508 51.6509 23.5758L56.9726 38.8011C56.9885 38.8489 56.9965 38.9284 56.9965 39.0398C56.9965 39.1352 56.9408 39.2386 56.8294 39.35C56.734 39.4455 56.6146 39.4932 56.4715 39.4932H52.0566C51.5793 39.4932 51.2691 39.2943 51.1259 38.8966L50.5531 37.3215H45.4223L44.8496 38.8966C44.7064 39.2943 44.3962 39.4932 43.9189 39.4932H39.504C39.3608 39.4932 39.2336 39.4455 39.1222 39.35C39.0267 39.2386 38.979 39.1352 38.979 39.0398C38.979 38.9284 38.987 38.8489 39.0029 38.8011L44.3246 23.5758C44.4678 23.0508 44.8257 22.7882 45.3985 22.7882ZM46.6394 32.668H49.3361L47.9758 28.2293L46.6394 32.668Z" fill="#2A2426"/>
<path d="M57.4787 22.7882H71.4631C71.6381 22.7882 71.7893 22.8519 71.9166 22.9792C72.0438 23.1064 72.1075 23.2576 72.1075 23.4326V27.2747C72.1075 27.4497 72.0438 27.6009 71.9166 27.7281C71.7893 27.8554 71.6381 27.9191 71.4631 27.9191H67.5017V38.8489C67.5017 39.0239 67.438 39.175 67.3108 39.3023C67.1835 39.4296 67.0324 39.4932 66.8573 39.4932H62.0845C61.9095 39.4932 61.7584 39.4296 61.6311 39.3023C61.5038 39.175 61.4402 39.0239 61.4402 38.8489V27.9191H57.4787C57.3037 27.9191 57.1526 27.8554 57.0253 27.7281C56.898 27.6009 56.8344 27.4497 56.8344 27.2747V23.4326C56.8344 23.2576 56.898 23.1064 57.0253 22.9792C57.1526 22.8519 57.3037 22.7882 57.4787 22.7882Z" fill="#2A2426"/>
<path d="M80.8216 39.4932H75.9533C75.7783 39.4932 75.6272 39.4296 75.4999 39.3023C75.3726 39.175 75.309 39.0239 75.309 38.8489V23.4326C75.309 23.2576 75.3726 23.1064 75.4999 22.9792C75.6272 22.8519 75.7783 22.7882 75.9533 22.7882H80.8216C80.9966 22.7882 81.1478 22.8519 81.2751 22.9792C81.4023 23.1064 81.466 23.2576 81.466 23.4326V38.8489C81.466 39.0239 81.4023 39.175 81.2751 39.3023C81.1478 39.4296 80.9966 39.4932 80.8216 39.4932Z" fill="#2A2426"/>
<path d="M94.6317 22.7882H98.9511C99.1261 22.7882 99.2773 22.8519 99.4046 22.9792C99.5318 23.1064 99.5955 23.2576 99.5955 23.4326V38.8489C99.5955 39.0239 99.5318 39.175 99.4046 39.3023C99.2773 39.4296 99.1261 39.4932 98.9511 39.4932H95.1806C94.767 39.4932 94.4408 39.3102 94.2022 38.9443L90.1691 32.8589V38.8489C90.1691 39.0239 90.1055 39.175 89.9782 39.3023C89.8509 39.4296 89.6998 39.4932 89.5248 39.4932H85.2054C85.0304 39.4932 84.8792 39.4296 84.752 39.3023C84.6247 39.175 84.561 39.0239 84.561 38.8489V23.4326C84.561 23.2576 84.6247 23.1064 84.752 22.9792C84.8792 22.8519 85.0304 22.7882 85.2054 22.7882H88.9759C89.4214 22.7882 89.7475 22.9712 89.9543 23.3371L93.9874 29.9475V23.4326C93.9874 23.2576 94.051 23.1064 94.1783 22.9792C94.3056 22.8519 94.4567 22.7882 94.6317 22.7882Z" fill="#2A2426"/>
<path d="M111.569 29.4225H118.132C118.307 29.4225 118.458 29.4861 118.585 29.6134C118.713 29.7407 118.776 29.8918 118.776 30.0668V33.1692C118.776 35.2692 118.029 36.892 116.533 38.0375C115.038 39.167 113.041 39.7318 110.543 39.7318C108.061 39.7318 106.104 39.183 104.673 38.0852C103.241 36.9715 102.525 35.309 102.525 33.0976V29.0884C102.525 26.9724 103.257 25.3576 104.72 24.244C106.184 23.1144 108.133 22.5496 110.567 22.5496C113.017 22.5496 114.998 23.0667 116.509 24.1008C118.021 25.119 118.776 26.3758 118.776 27.8713C118.776 28.0145 118.721 28.1418 118.609 28.2532C118.514 28.3486 118.395 28.3963 118.251 28.3963H112.977C112.659 28.3963 112.429 28.3088 112.285 28.1338C111.967 27.7202 111.728 27.4815 111.569 27.4179C111.203 27.2747 110.869 27.2031 110.567 27.2031C109.342 27.2031 108.73 27.7997 108.73 28.9929V33.0499C108.73 34.4022 109.382 35.0783 110.686 35.0783C112.023 35.0783 112.691 34.5056 112.691 33.3601H111.569C111.394 33.3601 111.243 33.2965 111.116 33.1692C110.989 33.0419 110.925 32.8908 110.925 32.7158V30.0668C110.925 29.8918 110.989 29.7407 111.116 29.6134C111.243 29.4861 111.394 29.4225 111.569 29.4225Z" fill="#2A2426"/>
<path d="M126.706 4.13079H156.309C156.68 4.13079 157 4.2655 157.269 4.53493C157.539 4.80436 157.673 5.1243 157.673 5.49477V13.6281C157.673 13.9986 157.539 14.3185 157.269 14.588C157 14.8574 156.68 14.9921 156.309 14.9921H147.923V38.1292C147.923 38.4997 147.789 38.8196 147.519 39.089C147.25 39.3585 146.93 39.4932 146.559 39.4932H136.456C136.085 39.4932 135.765 39.3585 135.496 39.089C135.227 38.8196 135.092 38.4997 135.092 38.1292V14.9921H126.706C126.335 14.9921 126.015 14.8574 125.746 14.588C125.477 14.3185 125.342 13.9986 125.342 13.6281V5.49477C125.342 5.1243 125.477 4.80436 125.746 4.53493C126.015 4.2655 126.335 4.13079 126.706 4.13079Z" fill="#2A2426"/>
<path d="M166.069 7.36392C169.167 4.87171 173.259 3.62561 178.345 3.62561C183.43 3.62561 187.505 4.88855 190.57 7.41444C193.669 9.90665 195.218 13.426 195.218 17.9726V25.8534C195.218 30.4674 193.685 33.9868 190.621 36.4116C187.59 38.8028 183.498 39.9984 178.345 39.9984C173.192 39.9984 169.083 38.8028 166.019 36.4116C162.987 33.9868 161.472 30.4674 161.472 25.8534V17.9726C161.472 13.3924 163.004 9.85613 166.069 7.36392ZM175.617 29.1371C176.29 29.8106 177.2 30.1474 178.345 30.1474C179.49 30.1474 180.399 29.8106 181.073 29.1371C181.746 28.4635 182.083 27.4363 182.083 26.0555V17.5685C182.083 16.2214 181.746 15.211 181.073 14.5374C180.399 13.8302 179.49 13.4766 178.345 13.4766C177.2 13.4766 176.29 13.8302 175.617 14.5374C174.943 15.211 174.607 16.2214 174.607 17.5685V26.0555C174.607 27.4363 174.943 28.4635 175.617 29.1371Z" fill="#2A2426"/>
<path d="M202.129 4.13079H217.184C222.033 4.13079 225.822 5.17482 228.55 7.26289C231.278 9.35095 232.642 12.4325 232.642 16.5076C232.642 20.5827 231.278 23.5969 228.55 25.5503C225.856 27.5036 222.067 28.4803 217.184 28.4803H213.9V38.1292C213.9 38.4997 213.765 38.8196 213.496 39.089C213.226 39.3585 212.906 39.4932 212.536 39.4932H202.129C201.759 39.4932 201.439 39.3585 201.169 39.089C200.9 38.8196 200.765 38.4997 200.765 38.1292V5.49477C200.765 5.1243 200.9 4.80436 201.169 4.53493C201.439 4.2655 201.759 4.13079 202.129 4.13079ZM213.647 13.5271V19.1345H217.184C217.79 19.1345 218.329 18.9156 218.8 18.4778C219.272 18.0063 219.507 17.3496 219.507 16.5076C219.507 15.6657 219.322 14.9584 218.952 14.3859C218.581 13.8134 217.992 13.5271 217.184 13.5271H213.647Z" fill="#2A2426"/>
<path d="M259.496 5.49477V38.1292C259.496 38.4997 259.362 38.8196 259.092 39.089C258.823 39.3585 258.503 39.4932 258.132 39.4932H248.231C247.86 39.4932 247.541 39.3585 247.271 39.089C247.002 38.8196 246.867 38.4997 246.867 38.1292V17.7201L241.209 22.0646C240.94 22.2666 240.636 22.3677 240.3 22.3677C239.997 22.3677 239.66 22.1319 239.289 21.6604L234.844 15.9014C234.709 15.6657 234.642 15.4468 234.642 15.2447C234.642 14.6385 234.861 14.2007 235.298 13.9312L247.473 4.48441C247.81 4.24866 248.18 4.13079 248.585 4.13079H258.132C258.503 4.13079 258.823 4.2655 259.092 4.53493C259.362 4.80436 259.496 5.1243 259.496 5.49477Z" fill="#2A2426"/>
<path d="M278.164 16.6592V26.8132C278.164 27.7899 278.4 28.5814 278.871 29.1876C279.343 29.7938 280.033 30.0969 280.942 30.0969C281.852 30.0969 282.542 29.7938 283.014 29.1876C283.485 28.5814 283.721 27.7899 283.721 26.8132V16.6592C283.721 14.4701 282.795 13.3755 280.942 13.3755C279.09 13.3755 278.164 14.4701 278.164 16.6592ZM296.855 17.1644V26.4091C296.855 30.7536 295.424 34.1046 292.561 36.4621C289.732 38.8196 285.859 39.9984 280.942 39.9984C276.025 39.9984 272.135 38.8196 269.273 36.4621C266.444 34.071 265.029 30.6863 265.029 26.3081V17.2654C265.029 12.9209 266.494 9.56986 269.424 7.21237C272.388 4.8212 276.227 3.62561 280.942 3.62561C285.657 3.62561 289.48 4.8212 292.41 7.21237C295.374 9.56986 296.855 12.8872 296.855 17.1644Z" fill="#2A2426"/>
<path d="M20.5256 14.2981C17.2732 14.2958 14.6226 16.9429 14.6215 20.1953C14.6191 23.4524 17.2639 26.0948 20.5187 26.0995C22.146 26.0995 23.6218 25.4374 24.6901 24.3702C25.7584 23.3019 26.4217 21.8273 26.4228 20.2022C26.424 18.627 25.8105 17.142 24.6959 16.0262C23.5859 14.9139 22.1021 14.2993 20.5256 14.2981Z" fill="#2A2426"/>
<path d="M19.5625 0C9.27513 0 0.985474 8.53966 0.985474 18.8618V32.5741C0.985474 36.3798 4.09901 39.4933 7.90471 39.4933H19.8438C31.034 39.4933 38.2102 33.2987 40.0262 24.3898C40.2138 23.4696 39.591 22.7219 38.6512 22.7312C37.4822 22.7427 36.0041 22.7555 35.0191 22.7636C34.4091 22.7682 33.8686 23.1687 33.7008 23.7555C33.0596 25.9986 31.8523 28.0045 30.2446 29.6099C27.7932 32.059 24.4088 33.5765 20.6772 33.5753L10.9604 33.5672C9.90594 33.5672 8.9522 33.1389 8.26236 32.4479C7.57252 31.757 7.14542 30.8032 7.14658 29.7488L7.15236 20.0343C7.16162 13.2354 12.1225 7.56741 18.6482 6.64955C20.8334 6.34167 20.7003 5.44696 20.7073 4.3115L20.7246 1.68988C20.7142 1.46186 20.9468 0 19.5625 0Z" fill="#2A2426"/>
<path d="M24.3402 0.357657C28.6021 1.03247 39.3516 3.17305 40.2174 18.2238C40.266 19.0734 39.5912 19.791 38.7404 19.791H35.4046C34.6453 19.791 34.0133 19.2146 33.9334 18.4599C33.6163 15.4528 31.9888 9.2691 23.7082 6.95992C23.0681 6.78167 22.6318 6.18904 22.6387 5.52465C22.6491 4.38222 22.6422 2.93189 22.6341 1.82997C22.626 0.916719 23.4385 0.214129 24.3402 0.357657Z" fill="#F80F71"/>
</svg>
