<svg width="297" height="41" viewBox="0 0 297 41" fill="none" xmlns="http://www.w3.org/2000/svg">
<path d="M59.5511 10.0367C59.7261 9.8299 59.8136 9.5833 59.8136 9.29693C59.8136 9.01056 59.7261 8.75601 59.5511 8.53328C59.392 8.29464 59.1533 8.17531 58.8351 8.17531H56.8305V10.347H58.8351C59.1533 10.347 59.392 10.2435 59.5511 10.0367ZM56.8305 14.3323V16.671H59.0499C59.4158 16.671 59.6863 16.5516 59.8613 16.313C60.0522 16.0585 60.1477 15.78 60.1477 15.4778V15.4539C60.1477 15.1516 60.0443 14.8891 59.8374 14.6664C59.6465 14.4436 59.384 14.3323 59.0499 14.3323H56.8305ZM59.6704 20.7756H51.5088C51.3338 20.7756 51.1827 20.712 51.0554 20.5847C50.9281 20.4574 50.8645 20.3063 50.8645 20.1313V4.71501C50.8645 4.54 50.9281 4.38886 51.0554 4.26159C51.1827 4.13431 51.3338 4.07067 51.5088 4.07067H59.4317C61.6909 4.07067 63.3534 4.48432 64.4194 5.31161C65.5012 6.12299 66.0421 7.35598 66.0421 9.01056V9.08215C66.0421 9.76626 65.8433 10.3788 65.4455 10.9197C65.0478 11.4447 64.6103 11.8265 64.133 12.0652C64.7694 12.3197 65.3023 12.7731 65.7319 13.4254C66.1774 14.0618 66.4001 14.7618 66.4001 15.5255C66.4001 19.0256 64.1569 20.7756 59.6704 20.7756Z" fill="#F80F71"/>
<path d="M74.9398 16.1221H82.29C82.465 16.1221 82.6161 16.1857 82.7434 16.313C82.8707 16.4403 82.9343 16.5914 82.9343 16.7664V20.1313C82.9343 20.3063 82.8707 20.4574 82.7434 20.5847C82.6161 20.712 82.465 20.7756 82.29 20.7756H69.8567C69.6817 20.7756 69.5306 20.712 69.4033 20.5847C69.276 20.4574 69.2124 20.3063 69.2124 20.1313V4.71501C69.2124 4.54 69.276 4.38886 69.4033 4.26159C69.5306 4.13431 69.6817 4.07067 69.8567 4.07067H82.0991C82.2741 4.07067 82.4252 4.13431 82.5525 4.26159C82.6798 4.38886 82.7434 4.54 82.7434 4.71501V8.07986C82.7434 8.25486 82.6798 8.406 82.5525 8.53328C82.4252 8.66055 82.2741 8.72419 82.0991 8.72419H74.9398V10.2276H81.574C81.7491 10.2276 81.9002 10.2913 82.0275 10.4185C82.1547 10.5458 82.2184 10.697 82.2184 10.872V13.9743C82.2184 14.1493 82.1547 14.3005 82.0275 14.4277C81.9002 14.555 81.7491 14.6186 81.574 14.6186H74.9398V16.1221Z" fill="#F80F71"/>
<path d="M85.9958 9.3208C85.9958 7.69803 86.664 6.37755 88.0004 5.35934C89.3527 4.34113 91.1186 3.83203 93.2982 3.83203C95.4937 3.83203 97.2835 4.365 98.6676 5.43093C100.068 6.49687 100.768 7.61053 100.768 8.77192C100.768 8.9151 100.712 9.04238 100.601 9.15375C100.505 9.2492 100.394 9.29693 100.267 9.29693H95.4937C95.1278 9.29693 94.7937 9.1617 94.4914 8.89124C94.1891 8.62078 93.7834 8.48555 93.2743 8.48555C92.5107 8.48555 92.1289 8.70828 92.1289 9.15375C92.1289 9.39239 92.3118 9.59126 92.6777 9.75035C93.0596 9.90945 93.7596 10.0526 94.7778 10.1799C97.1483 10.4822 98.8347 11.039 99.837 11.8504C100.855 12.6459 101.364 13.8629 101.364 15.5016C101.364 17.1244 100.617 18.4528 99.1211 19.4869C97.6415 20.5051 95.7005 21.0142 93.2982 21.0142C90.8959 21.0142 89.0106 20.5211 87.6424 19.5347C86.2742 18.5483 85.5901 17.3471 85.5901 15.9312C85.5901 15.788 85.6378 15.6687 85.7333 15.5732C85.8446 15.4618 85.9719 15.4062 86.1151 15.4062H90.6493C90.9834 15.4062 91.3493 15.5653 91.747 15.8834C92.1607 16.2016 92.7255 16.3607 93.4414 16.3607C94.6346 16.3607 95.2312 16.138 95.2312 15.6925C95.2312 15.4062 95.0164 15.1914 94.5869 15.0482C94.1573 14.8891 93.3459 14.73 92.1527 14.5709C88.0481 14.03 85.9958 12.28 85.9958 9.3208Z" fill="#F80F71"/>
<path d="M104.363 4.07067H118.348C118.523 4.07067 118.674 4.13431 118.801 4.26159C118.928 4.38886 118.992 4.54 118.992 4.71501V8.55714C118.992 8.73214 118.928 8.88329 118.801 9.01056C118.674 9.13784 118.523 9.20147 118.348 9.20147H114.386V20.1313C114.386 20.3063 114.322 20.4574 114.195 20.5847C114.068 20.712 113.917 20.7756 113.742 20.7756H108.969C108.794 20.7756 108.643 20.712 108.516 20.5847C108.388 20.4574 108.325 20.3063 108.325 20.1313V9.20147H104.363C104.188 9.20147 104.037 9.13784 103.91 9.01056C103.782 8.88329 103.719 8.73214 103.719 8.55714V4.71501C103.719 4.54 103.782 4.38886 103.91 4.26159C104.037 4.13431 104.188 4.07067 104.363 4.07067Z" fill="#F80F71"/>
<path d="M45.3985 23.7735H50.577C51.1497 23.7735 51.5077 24.036 51.6509 24.561L56.9726 39.7864C56.9885 39.8341 56.9965 39.9136 56.9965 40.025C56.9965 40.1205 56.9408 40.2239 56.8294 40.3352C56.734 40.4307 56.6146 40.4784 56.4715 40.4784H52.0566C51.5793 40.4784 51.2691 40.2795 51.1259 39.8818L50.5531 38.3068H45.4223L44.8496 39.8818C44.7064 40.2795 44.3962 40.4784 43.9189 40.4784H39.504C39.3608 40.4784 39.2336 40.4307 39.1222 40.3352C39.0267 40.2239 38.979 40.1205 38.979 40.025C38.979 39.9136 38.987 39.8341 39.0029 39.7864L44.3246 24.561C44.4678 24.036 44.8257 23.7735 45.3985 23.7735ZM46.6394 33.6533H49.3361L47.9758 29.2145L46.6394 33.6533Z" fill="white"/>
<path d="M57.4787 23.7735H71.4631C71.6381 23.7735 71.7893 23.8371 71.9166 23.9644C72.0438 24.0917 72.1075 24.2428 72.1075 24.4178V28.2599C72.1075 28.4349 72.0438 28.5861 71.9166 28.7134C71.7893 28.8406 71.6381 28.9043 71.4631 28.9043H67.5017V39.8341C67.5017 40.0091 67.438 40.1602 67.3108 40.2875C67.1835 40.4148 67.0324 40.4784 66.8573 40.4784H62.0845C61.9095 40.4784 61.7584 40.4148 61.6311 40.2875C61.5038 40.1602 61.4402 40.0091 61.4402 39.8341V28.9043H57.4787C57.3037 28.9043 57.1526 28.8406 57.0253 28.7134C56.898 28.5861 56.8344 28.4349 56.8344 28.2599V24.4178C56.8344 24.2428 56.898 24.0917 57.0253 23.9644C57.1526 23.8371 57.3037 23.7735 57.4787 23.7735Z" fill="white"/>
<path d="M80.8216 40.4784H75.9533C75.7783 40.4784 75.6272 40.4148 75.4999 40.2875C75.3726 40.1602 75.309 40.0091 75.309 39.8341V24.4178C75.309 24.2428 75.3726 24.0917 75.4999 23.9644C75.6272 23.8371 75.7783 23.7735 75.9533 23.7735H80.8216C80.9966 23.7735 81.1478 23.8371 81.2751 23.9644C81.4023 24.0917 81.466 24.2428 81.466 24.4178V39.8341C81.466 40.0091 81.4023 40.1602 81.2751 40.2875C81.1478 40.4148 80.9966 40.4784 80.8216 40.4784Z" fill="white"/>
<path d="M94.6317 23.7735H98.9511C99.1261 23.7735 99.2773 23.8371 99.4046 23.9644C99.5318 24.0917 99.5955 24.2428 99.5955 24.4178V39.8341C99.5955 40.0091 99.5318 40.1602 99.4046 40.2875C99.2773 40.4148 99.1261 40.4784 98.9511 40.4784H95.1806C94.767 40.4784 94.4408 40.2955 94.2022 39.9295L90.1691 33.8442V39.8341C90.1691 40.0091 90.1055 40.1602 89.9782 40.2875C89.8509 40.4148 89.6998 40.4784 89.5248 40.4784H85.2054C85.0304 40.4784 84.8792 40.4148 84.752 40.2875C84.6247 40.1602 84.561 40.0091 84.561 39.8341V24.4178C84.561 24.2428 84.6247 24.0917 84.752 23.9644C84.8792 23.8371 85.0304 23.7735 85.2054 23.7735H88.9759C89.4214 23.7735 89.7475 23.9564 89.9543 24.3224L93.9874 30.9327V24.4178C93.9874 24.2428 94.051 24.0917 94.1783 23.9644C94.3056 23.8371 94.4567 23.7735 94.6317 23.7735Z" fill="white"/>
<path d="M111.569 30.4077H118.132C118.307 30.4077 118.458 30.4714 118.585 30.5986C118.713 30.7259 118.776 30.8771 118.776 31.0521V34.1544C118.776 36.2545 118.029 37.8772 116.533 39.0227C115.038 40.1523 113.041 40.7171 110.543 40.7171C108.061 40.7171 106.104 40.1682 104.673 39.0704C103.241 37.9568 102.525 36.2942 102.525 34.0828V30.0736C102.525 27.9577 103.257 26.3429 104.72 25.2292C106.184 24.0996 108.133 23.5348 110.567 23.5348C113.017 23.5348 114.998 24.0519 116.509 25.086C118.021 26.1042 118.776 27.3611 118.776 28.8566C118.776 28.9997 118.721 29.127 118.609 29.2384C118.514 29.3338 118.395 29.3816 118.251 29.3816H112.977C112.659 29.3816 112.429 29.2941 112.285 29.1191C111.967 28.7054 111.728 28.4668 111.569 28.4031C111.203 28.2599 110.869 28.1884 110.567 28.1884C109.342 28.1884 108.73 28.785 108.73 29.9782V34.0351C108.73 35.3874 109.382 36.0635 110.686 36.0635C112.023 36.0635 112.691 35.4908 112.691 34.3453H111.569C111.394 34.3453 111.243 34.2817 111.116 34.1544C110.989 34.0271 110.925 33.876 110.925 33.701V31.0521C110.925 30.8771 110.989 30.7259 111.116 30.5986C111.243 30.4714 111.394 30.4077 111.569 30.4077Z" fill="white"/>
<path d="M126.706 5.11602H156.309C156.68 5.11602 157 5.25073 157.269 5.52016C157.539 5.78959 157.673 6.10953 157.673 6.48V14.6133C157.673 14.9838 157.539 15.3038 157.269 15.5732C157 15.8426 156.68 15.9773 156.309 15.9773H147.923V39.1144C147.923 39.4849 147.789 39.8048 147.519 40.0743C147.25 40.3437 146.93 40.4784 146.559 40.4784H136.456C136.085 40.4784 135.765 40.3437 135.496 40.0743C135.227 39.8048 135.092 39.4849 135.092 39.1144V15.9773H126.706C126.335 15.9773 126.015 15.8426 125.746 15.5732C125.477 15.3038 125.342 14.9838 125.342 14.6133V6.48C125.342 6.10953 125.477 5.78959 125.746 5.52016C126.015 5.25073 126.335 5.11602 126.706 5.11602Z" fill="white"/>
<path d="M166.069 8.34915C169.167 5.85694 173.259 4.61084 178.345 4.61084C183.43 4.61084 187.505 5.87378 190.57 8.39967C193.669 10.8919 195.218 14.4113 195.218 18.9579V26.8386C195.218 31.4526 193.685 34.972 190.621 37.3968C187.59 39.788 183.498 40.9836 178.345 40.9836C173.192 40.9836 169.083 39.788 166.019 37.3968C162.987 34.972 161.472 31.4526 161.472 26.8386V18.9579C161.472 14.3776 163.004 10.8414 166.069 8.34915ZM175.617 30.1223C176.29 30.7959 177.2 31.1326 178.345 31.1326C179.49 31.1326 180.399 30.7959 181.073 30.1223C181.746 29.4487 182.083 28.4215 182.083 27.0407V18.5537C182.083 17.2066 181.746 16.1962 181.073 15.5227C180.399 14.8154 179.49 14.4618 178.345 14.4618C177.2 14.4618 176.29 14.8154 175.617 15.5227C174.943 16.1962 174.607 17.2066 174.607 18.5537V27.0407C174.607 28.4215 174.943 29.4487 175.617 30.1223Z" fill="white"/>
<path d="M202.129 5.11602H217.184C222.033 5.11602 225.822 6.16005 228.55 8.24812C231.278 10.3362 232.642 13.4178 232.642 17.4929C232.642 21.568 231.278 24.5822 228.55 26.5355C225.856 28.4889 222.067 29.4656 217.184 29.4656H213.9V39.1144C213.9 39.4849 213.765 39.8048 213.496 40.0743C213.226 40.3437 212.906 40.4784 212.536 40.4784H202.129C201.759 40.4784 201.439 40.3437 201.169 40.0743C200.9 39.8048 200.765 39.4849 200.765 39.1144V6.48C200.765 6.10953 200.9 5.78959 201.169 5.52016C201.439 5.25073 201.759 5.11602 202.129 5.11602ZM213.647 14.5123V20.1198H217.184C217.79 20.1198 218.329 19.9009 218.8 19.463C219.272 18.9916 219.507 18.3348 219.507 17.4929C219.507 16.6509 219.322 15.9436 218.952 15.3711C218.581 14.7986 217.992 14.5123 217.184 14.5123H213.647Z" fill="white"/>
<path d="M259.496 6.48V39.1144C259.496 39.4849 259.362 39.8048 259.092 40.0743C258.823 40.3437 258.503 40.4784 258.132 40.4784H248.231C247.86 40.4784 247.541 40.3437 247.271 40.0743C247.002 39.8048 246.867 39.4849 246.867 39.1144V18.7053L241.209 23.0498C240.94 23.2519 240.636 23.3529 240.3 23.3529C239.997 23.3529 239.66 23.1172 239.289 22.6457L234.844 16.8866C234.709 16.6509 234.642 16.432 234.642 16.2299C234.642 15.6237 234.861 15.1859 235.298 14.9165L247.473 5.46964C247.81 5.23389 248.18 5.11602 248.585 5.11602H258.132C258.503 5.11602 258.823 5.25073 259.092 5.52016C259.362 5.78959 259.496 6.10953 259.496 6.48Z" fill="white"/>
<path d="M278.164 17.6444V27.7985C278.164 28.7751 278.4 29.5666 278.871 30.1728C279.343 30.779 280.033 31.0821 280.942 31.0821C281.852 31.0821 282.542 30.779 283.014 30.1728C283.485 29.5666 283.721 28.7751 283.721 27.7985V17.6444C283.721 15.4553 282.795 14.3608 280.942 14.3608C279.09 14.3608 278.164 15.4553 278.164 17.6444ZM296.855 18.1496V27.3943C296.855 31.7388 295.424 35.0899 292.561 37.4474C289.732 39.8048 285.859 40.9836 280.942 40.9836C276.025 40.9836 272.135 39.8048 269.273 37.4474C266.444 35.0562 265.029 31.6715 265.029 27.2933V18.2506C265.029 13.9061 266.494 10.5551 269.424 8.1976C272.388 5.80643 276.227 4.61084 280.942 4.61084C285.657 4.61084 289.48 5.80643 292.41 8.1976C295.374 10.5551 296.855 13.8724 296.855 18.1496Z" fill="white"/>
<path d="M20.5256 15.2834C17.2732 15.2811 14.6226 17.9282 14.6215 21.1807C14.6191 24.4377 17.2639 27.0802 20.5187 27.0848C22.146 27.0848 23.6218 26.4227 24.6901 25.3556C25.7584 24.2872 26.4217 22.8127 26.4228 21.1876C26.424 19.6123 25.8105 18.1273 24.6959 17.0115C23.5859 15.8992 22.1021 15.2846 20.5256 15.2834Z" fill="white"/>
<path d="M19.5625 0.985229C9.27513 0.985229 0.985474 9.52489 0.985474 19.847V33.5593C0.985474 37.365 4.09901 40.4786 7.90471 40.4786H19.8438C31.034 40.4786 38.2102 34.2839 40.0262 25.375C40.2138 24.4548 39.591 23.7071 38.6512 23.7164C37.4822 23.728 36.0041 23.7407 35.0191 23.7488C34.4091 23.7534 33.8686 24.1539 33.7008 24.7407C33.0596 26.9839 31.8523 28.9897 30.2446 30.5951C27.7932 33.0443 24.4088 34.5617 20.6772 34.5605L10.9604 34.5524C9.90594 34.5524 8.9522 34.1242 8.26236 33.4332C7.57252 32.7422 7.14542 31.7884 7.14658 30.734L7.15236 21.0195C7.16162 14.2207 12.1225 8.55264 18.6482 7.63478C20.8334 7.3269 20.7003 6.43219 20.7073 5.29673L20.7246 2.67511C20.7142 2.44709 20.9468 0.985229 19.5625 0.985229Z" fill="white"/>
<path d="M24.3402 1.34289C28.6021 2.0177 39.3516 4.15828 40.2174 19.209C40.266 20.0586 39.5912 20.7762 38.7404 20.7762H35.4046C34.6453 20.7762 34.0133 20.1998 33.9334 19.4451C33.6163 16.438 31.9888 10.2543 23.7082 7.94515C23.0681 7.7669 22.6318 7.17427 22.6387 6.50988C22.6491 5.36745 22.6422 3.91712 22.6341 2.8152C22.626 1.90195 23.4385 1.19936 24.3402 1.34289Z" fill="#F80F71"/>
</svg>
