<svg width="124" height="60" viewBox="0 0 124 60" fill="none" xmlns="http://www.w3.org/2000/svg">
<path d="M29.6729 0.966797C29.6716 0.966797 29.6702 0.966797 29.6689 0.966797V59.2956C29.6702 59.2956 29.6716 59.2956 29.6729 59.2956C45.7795 59.2956 58.8373 46.2378 58.8373 30.1312C58.8373 14.0246 45.7795 0.966797 29.6729 0.966797Z" fill="#FDE06D"/>
<path d="M0.508301 30.1312C0.508301 46.2378 13.5635 59.2943 29.6688 59.2956V0.966797C13.5635 0.968101 0.508301 14.0246 0.508301 30.1312Z" fill="#FEB930"/>
<path d="M29.6702 0.966797H29.6689V59.2956H29.6702C38.0667 59.2956 44.8741 46.2378 44.8741 30.1312C44.8741 14.0246 38.068 0.966797 29.6702 0.966797Z" fill="#FEB930"/>
<path d="M72.8784 34.1777V46.4801C72.8784 47.1507 72.4544 47.6504 71.6064 47.9778C70.7584 48.3066 69.8348 48.471 68.8368 48.471C67.6274 48.471 66.5759 48.0796 65.6822 47.2981C64.7886 46.5167 64.3346 45.126 64.3215 43.1286C64.3215 41.5774 64.6999 40.3655 65.4552 39.4914C66.2106 38.6173 67.3313 38.1803 68.8172 38.1803C69.159 38.1803 69.583 38.2364 70.0892 38.3472C70.5954 38.4594 71.052 38.5938 71.459 38.7517V34.1777H72.8784ZM71.459 40.1711C71.065 39.948 70.6345 39.7771 70.1675 39.6584C69.7004 39.5397 69.2503 39.481 68.8172 39.481C67.7918 39.481 67.0364 39.8058 66.5498 40.4568C66.0632 41.1078 65.8205 41.9975 65.8205 43.1286C65.8205 44.3641 66.0436 45.3464 66.4911 46.0757C66.9373 46.805 67.7461 47.1703 68.9163 47.1703C69.613 47.1703 70.2105 47.092 70.7102 46.9341C71.2098 46.7763 71.459 46.5793 71.459 46.3432V40.1711Z" fill="#446077"/>
<path d="M109.894 47.6731C109.433 47.2335 109.204 46.606 109.204 45.7906V39.6394H107.488V38.3387H109.204V35.5586H110.623V38.3387H113.166V39.6394H110.623V45.3366C110.623 45.9145 110.714 46.3359 110.9 46.5981C111.084 46.8617 111.425 46.9921 111.925 46.9921C112.412 46.9921 112.825 46.9139 113.167 46.756V48.0971C112.983 48.1624 112.75 48.2185 112.468 48.2641C112.185 48.3098 111.918 48.3333 111.669 48.3333C110.945 48.3333 110.354 48.1128 109.894 47.6731Z" fill="#446077"/>
<path d="M122.846 39.6194C123.543 40.5926 123.878 41.8868 123.852 43.5032H116.675C116.675 44.6864 116.952 45.5931 117.504 46.2233C118.055 46.8547 118.845 47.1691 119.869 47.1691C121.183 47.1691 122.307 46.886 123.24 46.3211V47.7797C122.28 48.2402 121.13 48.4698 119.789 48.4698C118.357 48.4698 117.239 48.0262 116.438 47.1391C115.635 46.252 115.235 44.9539 115.235 43.2448C115.235 41.5763 115.613 40.3108 116.369 39.4498C117.124 38.5887 118.186 38.1582 119.553 38.1582C121.052 38.1595 122.149 38.6461 122.846 39.6194ZM117.583 40.0629C117.136 40.4634 116.854 41.1771 116.735 42.2025H122.354C122.288 41.2827 122.029 40.5952 121.575 40.1425C121.121 39.6885 120.448 39.4628 119.554 39.4628C118.687 39.4615 118.029 39.6611 117.583 40.0629Z" fill="#446077"/>
<path d="M103.022 38.1562V38.7511C102.615 38.5933 102.158 38.4589 101.653 38.3467C101.146 38.2358 100.722 38.1797 100.381 38.1797C100.368 38.1797 80.3954 38.1797 80.3824 38.1797C78.916 38.1876 77.8084 38.6246 77.0583 39.4909C76.3029 40.3649 75.9246 41.5782 75.9246 43.1281C75.9376 45.1267 76.3916 46.5161 77.2853 47.2976C78.1789 48.0804 79.2304 48.4704 80.4398 48.4704C80.4489 48.4704 100.42 48.4704 100.429 48.4704C101.362 48.4678 102.227 48.3191 103.028 48.0282V48.4704H104.442V46.4796V46.13V38.1562H103.022ZM103.022 46.3426C103.022 46.5788 102.773 46.7758 102.274 46.9336C101.783 47.0889 101.197 47.1671 100.516 47.1698C100.505 47.1698 80.5324 47.1698 80.5194 47.1698C79.3491 47.1698 78.5416 46.8045 78.0941 46.0752C77.6466 45.3459 77.4235 44.3636 77.4235 43.1281C77.4235 41.9983 77.6662 41.1073 78.1528 40.4563C78.6329 39.8131 79.3778 39.4882 80.3863 39.4804C80.398 39.4804 100.37 39.4804 100.381 39.4804C100.814 39.4804 101.264 39.5391 101.731 39.6578C102.197 39.7766 102.628 39.9475 103.022 40.1706V46.3426Z" fill="#446077"/>
<path d="M80.98 45.1523C79.5854 45.1523 78.4517 44.0186 78.4517 42.624C78.4517 41.2294 79.5867 40.0957 80.98 40.0957C82.3746 40.0957 83.5083 41.2294 83.5083 42.624C83.5096 44.0186 82.3746 45.1523 80.98 45.1523ZM80.98 41.4186C80.3146 41.4186 79.7745 41.96 79.7745 42.624C79.7745 43.2894 80.3159 43.8295 80.98 43.8295C81.644 43.8295 82.1854 43.2881 82.1854 42.624C82.1867 41.9587 81.6453 41.4186 80.98 41.4186Z" fill="#446077"/>
<path d="M82.635 43.4221L81.6978 44.3594L83.8619 46.5235L84.7991 45.5863L82.635 43.4221Z" fill="#446077"/>
<path d="M13.2374 30.1086C16.5015 39.6335 29.8633 47.268 29.8633 47.268C29.8633 47.268 35.8253 33.3127 32.4673 23.5177C30.6474 18.208 24.8667 15.3783 19.5569 17.1982C14.2459 19.0195 11.4175 24.7989 13.2374 30.1086Z" fill="#CC193B"/>
<path d="M46.489 30.1086C43.2249 39.6335 29.8631 47.268 29.8631 47.268C29.8631 47.268 23.9011 33.3127 27.2592 23.5177C29.0791 18.208 34.8598 15.3783 40.1695 17.1982C45.4792 19.0195 48.3089 24.7989 46.489 30.1086Z" fill="#E11A39"/>
<path d="M38.3522 36.7511C40.6299 30.1048 40.5115 24.0435 38.0878 23.2129C35.664 22.3822 31.8526 27.0968 29.5749 33.7431C27.2972 40.3894 27.4156 46.4507 29.8393 47.2814C32.2631 48.112 36.0745 43.3975 38.3522 36.7511Z" fill="#FEB930"/>
<path d="M35.785 40.188C37.3316 35.6751 37.1769 31.534 35.4395 30.9386C33.7021 30.3431 31.0398 33.5189 29.4932 38.0318C27.9466 42.5447 28.1013 46.6858 29.8387 47.2812C31.5761 47.8767 34.2384 44.7009 35.785 40.188Z" fill="#FDE06D"/>
<path d="M34.2358 42.2731C35.3395 39.0526 35.1606 36.0738 33.8363 35.62C32.5119 35.1661 30.5436 37.409 29.4399 40.6296C28.3361 43.8501 28.515 46.8289 29.8394 47.2827C31.1637 47.7366 33.1321 45.4937 34.2358 42.2731Z" fill="white"/>
<path d="M36.8207 16.6482C37.9127 16.6482 39.0255 16.8256 40.1162 17.2C45.4259 19.02 48.2556 24.8007 46.4357 30.1104C43.9295 37.4227 35.4744 43.6196 31.6806 46.1048C30.9174 46.6136 30.5599 46.8419 29.8411 47.2516C29.7341 47.1589 29.6819 47.1315 29.5463 47.0193C27.2541 45.6326 16.2615 38.6268 13.3431 30.1104C11.5232 24.8007 14.3528 19.02 19.6626 17.2C20.7545 16.8256 21.8648 16.6482 22.958 16.6482C25.5424 16.6482 28.0225 17.641 29.8894 19.3787C31.7563 17.641 34.2363 16.6482 36.8207 16.6482ZM36.8207 12.7344C34.3655 12.7344 31.9872 13.3697 29.8894 14.5582C27.7916 13.3697 25.4133 12.7344 22.958 12.7344C21.4068 12.7344 19.8713 12.9914 18.3932 13.4976C14.8356 14.7174 11.9667 17.2483 10.3138 20.6259C8.66086 24.0035 8.42212 27.8221 9.64062 31.3798C11.1005 35.6393 14.2811 39.9458 19.0951 44.1779C22.5197 47.1889 25.849 49.3455 27.3128 50.2417C27.3206 50.2482 27.3284 50.2535 27.3363 50.26C28.0551 50.8588 28.9448 51.1654 29.8411 51.1654C30.5051 51.1654 31.1731 50.9971 31.7771 50.6527C32.5716 50.2 33.01 49.9221 33.8371 49.3702C38.7241 46.1674 47.328 39.5766 50.1368 31.3785C51.3553 27.8208 51.1166 24.0022 49.4636 20.6246C47.8107 17.247 44.9406 14.7161 41.3842 13.4963C39.9074 12.9914 38.3719 12.7344 36.8207 12.7344Z" fill="white"/>
<path d="M66.7611 29.7694C66.114 29.5985 65.3939 29.3506 64.6033 29.027V25.4929C66.0605 26.59 67.5882 27.138 69.1889 27.138C69.7995 27.138 70.2457 27.0349 70.5249 26.8275C70.804 26.6214 70.9436 26.3383 70.9436 25.9782C70.9436 25.5646 70.7179 25.2594 70.2692 25.0611C69.8191 24.8628 69.1002 24.6475 68.1113 24.414C67.0677 24.1987 66.2092 23.7669 65.5347 23.1185C64.8603 22.4714 64.5237 21.5269 64.5237 20.2862C64.5237 19.2256 64.7937 18.3528 65.3325 17.6692C65.8726 16.9856 66.551 16.4872 67.369 16.1715C68.187 15.8571 69.0363 15.6992 69.9182 15.6992C70.9971 15.6992 71.8738 15.7931 72.5483 15.9823C73.2228 16.1715 73.8842 16.4637 74.5313 16.859V20.0148C73.6142 19.5113 72.9031 19.1512 72.3996 18.9359C71.896 18.7207 71.3115 18.6124 70.6462 18.6124C69.9808 18.6124 69.4864 18.7168 69.1629 18.9229C68.8393 19.1303 68.6775 19.4226 68.6775 19.7996C68.6775 20.2497 68.8576 20.5771 69.2176 20.7846C69.5777 20.992 70.153 21.2033 70.9436 21.4186C71.8425 21.6521 72.5535 21.8817 73.0754 22.1061C73.5972 22.3318 74.0642 22.718 74.4778 23.2659C74.8914 23.8152 75.0988 24.5836 75.0988 25.5725C75.0623 27.1197 74.4778 28.2482 73.3454 28.9579C72.213 29.6676 70.7727 30.0238 69.0285 30.0238C68.1635 30.0251 67.4082 29.9403 66.7611 29.7694Z" fill="url(#paint0_linear)"/>
<path d="M78.5614 28.1899C77.4108 26.9674 76.8354 25.1501 76.8354 22.7405C76.8354 20.2226 77.4069 18.3884 78.5484 17.2377C79.6899 16.087 81.4211 15.5117 83.742 15.5117C86.0616 15.5117 87.8059 16.1014 88.9761 17.2782C90.145 18.4562 90.7295 20.2774 90.7295 22.7405C90.7295 25.1149 90.1268 26.9218 88.9226 28.1638C87.7171 29.4044 85.9912 30.0254 83.7433 30.0254C81.4394 30.0241 79.7121 29.4136 78.5614 28.1899ZM85.9807 25.775C86.4843 25.0823 86.7361 24.0712 86.7361 22.7405C86.7361 21.2833 86.4882 20.2448 85.9938 19.6251C85.4993 19.0041 84.7479 18.695 83.7407 18.695C82.697 18.695 81.9469 19.0054 81.4877 19.6251C81.0284 20.2461 80.8001 21.2846 80.8001 22.7405C80.8001 24.126 81.0389 25.1514 81.5151 25.8155C81.9912 26.4808 82.7336 26.8135 83.7407 26.8135C84.7309 26.8148 85.4771 26.4678 85.9807 25.775Z" fill="url(#paint1_linear)"/>
<path d="M94.4345 19.0451H92.4385V15.9702H94.4619V15.6466C94.4802 13.5958 94.9511 12.1712 95.8787 11.3702C96.805 10.5704 98.0678 10.1699 99.6686 10.1699C99.9556 10.1699 100.271 10.1973 100.613 10.2508C100.955 10.3043 101.234 10.3682 101.449 10.44V13.9741C101.251 13.7758 101.054 13.6284 100.856 13.5293C100.657 13.4301 100.406 13.3806 100.1 13.3806C99.5968 13.3806 99.2002 13.5149 98.9132 13.785C98.6249 14.055 98.4814 14.5129 98.4814 15.1613V15.9702H101.449V19.0451H98.4553V29.6203H94.4358V19.0451H94.4345Z" fill="url(#paint2_linear)"/>
<path d="M108.523 11.0059H104.368V14.1082H108.523V11.0059Z" fill="url(#paint3_linear)"/>
<path d="M104.448 29.6204V16.1582H108.468L108.495 29.6204H104.448Z" fill="url(#paint4_linear)"/>
<path d="M122.118 16.6036C123.341 17.2963 123.952 18.5422 123.952 20.34L123.925 26.7873C123.907 27.921 123.341 28.7429 122.225 29.2556C121.11 29.7683 119.483 30.024 117.342 30.024C113.35 30.024 111.353 28.4689 111.353 25.3562C111.353 24.0437 111.761 23.0183 112.58 22.2812C113.398 21.5441 114.617 21.1749 116.236 21.1749C116.901 21.1749 117.566 21.261 118.232 21.4306C118.897 21.6015 119.472 21.822 119.958 22.092V21.2284C119.958 19.6642 118.951 18.8814 116.936 18.8814C116.163 18.8814 115.367 19.021 114.549 19.3002C113.731 19.5794 113.079 19.916 112.593 20.3113V16.7497C113.079 16.4261 113.821 16.147 114.819 15.9134C115.817 15.6799 116.892 15.5625 118.043 15.5625C119.538 15.5638 120.896 15.9108 122.118 16.6036ZM119.42 27.0026C119.78 26.8773 119.96 26.6255 119.96 26.2472V24.1429C119.33 23.9276 118.639 23.8193 117.883 23.8193C117.001 23.8193 116.36 23.9498 115.954 24.2107C115.549 24.4716 115.347 24.8813 115.347 25.4383C115.347 25.9602 115.559 26.3829 115.981 26.7064C116.404 27.03 116.902 27.1917 117.479 27.1917C118.413 27.1917 119.061 27.1291 119.42 27.0026Z" fill="url(#paint5_linear)"/>
<defs>
<linearGradient id="paint0_linear" x1="69.8091" y1="10.1959" x2="69.8091" y2="30.3281" gradientUnits="userSpaceOnUse">
<stop stop-color="#E03868"/>
<stop offset="0.343" stop-color="#DC335F"/>
<stop offset="0.9117" stop-color="#D02745"/>
<stop offset="0.9944" stop-color="#CE2541"/>
</linearGradient>
<linearGradient id="paint1_linear" x1="83.782" y1="10.195" x2="83.782" y2="30.3272" gradientUnits="userSpaceOnUse">
<stop stop-color="#E03868"/>
<stop offset="0.343" stop-color="#DC335F"/>
<stop offset="0.9117" stop-color="#D02745"/>
<stop offset="0.9944" stop-color="#CE2541"/>
</linearGradient>
<linearGradient id="paint2_linear" x1="96.9431" y1="10.1955" x2="96.9431" y2="30.3277" gradientUnits="userSpaceOnUse">
<stop stop-color="#E03868"/>
<stop offset="0.343" stop-color="#DC335F"/>
<stop offset="0.9117" stop-color="#D02745"/>
<stop offset="0.9944" stop-color="#CE2541"/>
</linearGradient>
<linearGradient id="paint3_linear" x1="106.445" y1="11.0097" x2="106.445" y2="14.2208" gradientUnits="userSpaceOnUse">
<stop stop-color="#E03868"/>
<stop offset="0.343" stop-color="#DC335F"/>
<stop offset="0.9117" stop-color="#D02745"/>
<stop offset="0.9944" stop-color="#CE2541"/>
</linearGradient>
<linearGradient id="paint4_linear" x1="106.472" y1="16.1768" x2="106.472" y2="30.1101" gradientUnits="userSpaceOnUse">
<stop stop-color="#E03868"/>
<stop offset="0.343" stop-color="#DC335F"/>
<stop offset="0.9117" stop-color="#D02745"/>
<stop offset="0.9944" stop-color="#CE2541"/>
</linearGradient>
<linearGradient id="paint5_linear" x1="117.654" y1="10.1949" x2="117.654" y2="30.3271" gradientUnits="userSpaceOnUse">
<stop stop-color="#E03868"/>
<stop offset="0.343" stop-color="#DC335F"/>
<stop offset="0.9117" stop-color="#D02745"/>
<stop offset="0.9944" stop-color="#CE2541"/>
</linearGradient>
</defs>
</svg>
