<?xml version="1.0" encoding="utf-8"?>
<!-- Generator: Adobe Illustrator 25.4.1, SVG Export Plug-In . SVG Version: 6.00 Build 0)  -->
<svg version="1.1" id="rocket" xmlns="http://www.w3.org/2000/svg" xmlns:xlink="http://www.w3.org/1999/xlink" x="0px" y="0px"
	 viewBox="0 0 50 50" style="enable-background:new 0 0 50 50;" xml:space="preserve">
<style type="text/css">
	.st0{fill:none;stroke:#191919;stroke-width:0.8276;stroke-linecap:round;stroke-linejoin:round;stroke-miterlimit:8.8276;}
</style>
<path class="st0" d="M28.35,6.78c-1.52,1-2.98,2.17-4.33,3.52c-1.99,1.99-1.93,2.1-3.71,4.13 M28.35,6.78
	c9.5-6.29,21.17-6.29,21.17-6.29s0,11.67-6.29,21.17 M28.35,6.78l14.88,14.88 M43.22,21.65c-1,1.52-2.17,2.98-3.52,4.33
	c-1.99,1.99-2.1,1.93-4.13,3.71 M9.94,27.59c-1.03,1.45-1.61,2.31-1.61,2.31L20.1,41.67c0,0,0.86-0.57,2.31-1.61 M9.94,27.59
	l-9.45-9.45l15.69-7.84l4.13,4.13 M9.94,27.59c2.01-2.82,5.75-7.88,10.37-13.16 M22.41,40.06l9.45,9.45l7.84-15.69l-4.13-4.13
	 M22.41,40.06c2.82-2.01,7.88-5.75,13.16-10.37"/>
<path class="st0" d="M10.55,39.35c0.77-3.13,2.21-4.41,3.31-3.31C14.97,37.15,13.68,38.58,10.55,39.35z"/>
</svg>
