<?xml version="1.0" encoding="utf-8"?>
<!-- Generator: Adobe Illustrator 25.4.1, SVG Export Plug-In . SVG Version: 6.00 Build 0)  -->
<svg version="1.1" id="Layer_1" xmlns="http://www.w3.org/2000/svg" xmlns:xlink="http://www.w3.org/1999/xlink" x="0px" y="0px"
	 viewBox="0 0 50 50" style="enable-background:new 0 0 50 50;" xml:space="preserve">
<style type="text/css">
	.st0{fill:none;stroke:#191818;stroke-width:1.6552;stroke-linecap:round;stroke-linejoin:round;stroke-miterlimit:7.7241;}
</style>
<path class="st0" d="M27.33,12.31c-1.06,0.7-2.07,1.51-3.01,2.45c-1.38,1.38-1.35,1.46-2.59,2.88 M27.33,12.31
	c6.61-4.38,14.74-4.38,14.74-4.38s0,8.12-4.38,14.74 M27.33,12.31l10.36,10.36 M37.69,22.67c-0.7,1.06-1.51,2.07-2.45,3.01
	c-1.38,1.38-1.46,1.35-2.88,2.59 M14.51,26.8c-0.72,1.01-1.12,1.61-1.12,1.61l8.19,8.19c0,0,0.6-0.4,1.61-1.12 M14.51,26.8
	l-6.58-6.58l10.92-5.46l2.88,2.88 M14.51,26.8c1.4-1.97,4-5.49,7.22-9.17 M23.2,35.49l6.58,6.58l5.46-10.92l-2.88-2.88 M23.2,35.49
	c1.97-1.4,5.49-4,9.17-7.22"/>
<path class="st0" d="M12.36,37.56c0.68-2.74,1.93-3.86,2.9-2.9C16.22,35.63,15.1,36.88,12.36,37.56z"/>
</svg>
