<?xml version="1.0" encoding="utf-8"?>
<!-- Generator: Adobe Illustrator 25.4.1, SVG Export Plug-In . SVG Version: 6.00 Build 0)  -->
<svg version="1.1" id="Layer_1" xmlns="http://www.w3.org/2000/svg" xmlns:xlink="http://www.w3.org/1999/xlink" x="0px" y="0px"
	 viewBox="0 0 50 50" style="enable-background:new 0 0 50 50;" xml:space="preserve">
<style type="text/css">
	.st0{fill:none;stroke:#191919;stroke-width:1.6552;stroke-linecap:round;stroke-linejoin:round;stroke-miterlimit:8.8276;}
</style>
<path class="st0" d="M27.66,10.69c-1.21,0.8-2.37,1.72-3.44,2.8c-1.58,1.58-1.54,1.67-2.95,3.29 M27.66,10.69
	c7.56-5,16.84-5,16.84-5s0,9.28-5,16.84 M27.66,10.69L39.5,22.53 M39.5,22.53c-0.8,1.21-1.72,2.37-2.8,3.44
	c-1.58,1.58-1.67,1.54-3.29,2.95 M13.01,27.25c-0.82,1.16-1.28,1.84-1.28,1.84l9.36,9.36c0,0,0.69-0.46,1.84-1.28 M13.01,27.25
	l-7.52-7.52l12.48-6.24l3.29,3.29 M13.01,27.25c1.6-2.25,4.58-6.27,8.25-10.48 M22.94,37.18l7.52,7.52l6.24-12.48l-3.29-3.29
	 M22.94,37.18c2.25-1.6,6.27-4.58,10.48-8.25"/>
<path class="st0" d="M10.55,39.55c0.77-3.13,2.21-4.41,3.31-3.31C14.97,37.34,13.68,38.77,10.55,39.55z"/>
</svg>
