<svg width="136" height="53" viewBox="0 0 136 53" fill="none" xmlns="http://www.w3.org/2000/svg">
<g clip-path="url(#clip0)">
<path d="M1.51226 23.7405C2.19508 28.1728 5.69188 36.4413 21.4393 42.0195C21.7973 42.1462 21.9847 42.5392 21.8579 42.8972C21.758 43.1792 21.4928 43.3554 21.2098 43.3554C21.1335 43.3554 21.0561 43.3426 20.9802 43.3158C13.9314 40.8189 1.8527 34.9828 0.1531 23.9499C-0.371267 20.546 0.461313 17.1416 2.49729 14.3639C4.53345 11.5862 7.52943 9.76768 10.9332 9.24332C14.6004 8.67842 18.257 9.69252 21.0947 12.0344C23.0959 8.9472 26.2781 6.87946 29.9449 6.31456C33.3492 5.78992 36.7532 6.62268 39.5309 8.65884C42.3086 10.695 44.1271 13.691 44.6515 17.0948C44.7076 17.4588 44.7519 17.8282 44.7839 18.1961C44.9751 19.7907 44.9191 21.3462 44.6666 22.8528L40.0764 20.3597C40.0764 20.3597 39.9721 20.2528 39.7962 19.3441C40.6254 12.0192 32.4446 5.01613 24.9784 9.84848C23.721 10.7959 22.6561 12.0069 21.8577 13.4303C21.7543 13.6147 21.5717 13.7413 21.3627 13.7735C21.1537 13.8057 20.9416 13.7399 20.7874 13.5952C18.1833 11.1502 14.6679 10.0594 11.1428 10.6025C4.86548 11.5695 0.545245 17.4632 1.51226 23.7405Z" fill="#FFB500"/>
<path fill-rule="evenodd" clip-rule="evenodd" d="M32.2213 20.4341C34.5166 18.9694 37.2906 18.5255 39.9544 19.2212C45.1798 20.5857 48.3208 25.947 46.9565 31.1722C46.261 33.8351 44.7129 36.2132 42.355 38.2404C40.4981 39.837 38.1368 41.219 35.3368 42.3483C30.6037 44.2573 26.2979 44.7813 26.117 44.8027C26.09 44.8059 26.0631 44.8074 26.0363 44.8074C25.8917 44.8074 25.75 44.7619 25.632 44.6761C25.4847 44.569 21.9849 42.0067 18.7893 38.0273C16.8989 35.6732 15.5149 33.3132 14.6755 31.0126C13.6098 28.0915 13.422 25.2599 14.1174 22.597C14.7783 20.0657 16.3855 17.9433 18.6428 16.6208C20.9 15.2984 23.5371 14.934 26.0685 15.5951C28.7322 16.2907 30.935 18.034 32.2213 20.4341ZM35.2572 20.5722C41.5301 19.1702 45.9242 26.9719 42.7508 32.5479C39.2079 38.7734 31.8079 41.8688 26.3261 43.3856C26.2895 43.3911 26.2554 43.3961 26.224 43.4006C25.4148 42.7797 22.4809 40.4346 19.8427 37.143C18.052 34.909 16.7463 32.683 15.9619 30.5268C14.9985 27.8785 14.8256 25.3274 15.4478 22.9446C16.0159 20.7686 17.3975 18.9443 19.3378 17.8074C20.646 17.0411 22.1025 16.649 23.5795 16.649C24.2933 16.649 25.012 16.7406 25.7209 16.9257C28.2434 17.5844 30.2851 19.3363 31.3225 21.7323C31.4065 21.9264 31.5752 22.071 31.7798 22.1243C31.9846 22.1777 32.2022 22.1341 32.3703 22.0059C33.2491 21.3359 34.2285 20.8546 35.2572 20.5722Z" fill="white"/>
</g>
<path d="M55.0422 17.6371C54.3894 17.4146 53.796 17.1921 53.262 16.9695C52.7279 16.7322 52.268 16.4503 51.8823 16.1239C51.4966 15.7976 51.1925 15.4119 50.97 14.9668C50.7623 14.5069 50.6584 13.9506 50.6584 13.2979C50.6584 12.0369 51.1406 11.0281 52.1048 10.2715C53.0839 9.51492 54.4488 9.13662 56.1993 9.13662C56.8372 9.13662 57.4306 9.18113 57.9795 9.27014C58.5284 9.35915 58.9957 9.50008 59.3814 9.69294C59.782 9.87096 60.0935 10.1083 60.316 10.405C60.5386 10.6869 60.6498 11.0207 60.6498 11.4064C60.6498 11.7921 60.5608 12.1259 60.3828 12.4078C60.2048 12.6748 59.9897 12.9047 59.7375 13.0976C59.4111 12.8899 58.9735 12.7119 58.4246 12.5635C57.8757 12.4003 57.2749 12.3187 56.6221 12.3187C55.9545 12.3187 55.465 12.4152 55.1534 12.608C54.8419 12.7861 54.6861 13.016 54.6861 13.2979C54.6861 13.5204 54.7826 13.7058 54.9754 13.8542C55.1683 13.9877 55.4576 14.1138 55.8433 14.2325L57.0227 14.6108C58.4172 15.0558 59.4853 15.627 60.227 16.3242C60.9836 17.0066 61.3619 17.9412 61.3619 19.128C61.3619 20.389 60.8649 21.4126 59.871 22.1989C58.877 22.9703 57.4158 23.356 55.4872 23.356C54.8048 23.356 54.1669 23.2967 53.5735 23.178C52.9949 23.0742 52.4831 22.9184 52.0381 22.7107C51.6079 22.4882 51.2667 22.2212 51.0145 21.9096C50.7771 21.5833 50.6584 21.2124 50.6584 20.797C50.6584 20.3668 50.7845 20.0033 51.0367 19.7066C51.2889 19.3951 51.5634 19.1577 51.8601 18.9945C52.2754 19.3209 52.7798 19.6028 53.3732 19.8401C53.9815 20.0775 54.6416 20.1962 55.3537 20.1962C56.0806 20.1962 56.5924 20.0849 56.8891 19.8624C57.1858 19.6399 57.3342 19.3802 57.3342 19.0835C57.3342 18.7868 57.2155 18.5643 56.9782 18.416C56.7408 18.2528 56.407 18.097 55.9768 17.9487L55.0422 17.6371ZM68.4991 23.356C67.6238 23.356 66.8079 23.2374 66.0513 23C65.3096 22.7478 64.6568 22.3769 64.0931 21.8874C63.5442 21.3978 63.1065 20.7822 62.7802 20.0404C62.4686 19.2986 62.3129 18.4308 62.3129 17.4368C62.3129 16.4577 62.4686 15.6196 62.7802 14.9223C63.1065 14.2102 63.5293 13.6317 64.0486 13.1866C64.5678 12.7267 65.1612 12.3929 65.8288 12.1852C66.4964 11.9627 67.1788 11.8514 67.876 11.8514C68.6623 11.8514 69.3744 11.9701 70.0123 12.2075C70.665 12.4448 71.2213 12.7712 71.6812 13.1866C72.1559 13.602 72.5194 14.099 72.7716 14.6775C73.0386 15.2561 73.1721 15.8866 73.1721 16.569C73.1721 17.0734 73.0312 17.4591 72.7493 17.7261C72.4675 17.9932 72.0744 18.1638 71.57 18.2379L66.0736 19.0613C66.2367 19.5508 66.5705 19.9217 67.0749 20.1739C67.5793 20.4113 68.1579 20.53 68.8106 20.53C69.4189 20.53 69.99 20.4558 70.5241 20.3074C71.073 20.1442 71.518 19.9588 71.8592 19.7511C72.0966 19.8995 72.2969 20.1072 72.4601 20.3742C72.6232 20.6412 72.7048 20.9231 72.7048 21.2198C72.7048 21.8874 72.3933 22.3843 71.7702 22.7107C71.2955 22.9629 70.7614 23.1335 70.168 23.2225C69.5746 23.3115 69.0183 23.356 68.4991 23.356ZM67.876 14.6108C67.52 14.6108 67.2084 14.6701 66.9414 14.7888C66.6892 14.9075 66.4815 15.0632 66.3183 15.2561C66.1552 15.4341 66.0291 15.6418 65.94 15.8792C65.8659 16.1017 65.8214 16.3316 65.8065 16.569L69.6117 15.9459C69.5672 15.6492 69.404 15.3525 69.1222 15.0558C68.8403 14.7591 68.4249 14.6108 67.876 14.6108ZM73.8385 13.9432C73.9572 13.3795 74.1871 12.9196 74.5283 12.5635C74.8844 12.2075 75.322 12.0295 75.8412 12.0295C76.3308 12.0295 76.7091 12.1481 76.9761 12.3855C77.2432 12.6229 77.5399 12.9567 77.8662 13.3869L79.2904 15.2561L81.6714 12.0295C82.4874 12.0295 83.1327 12.1778 83.6074 12.4745C84.0821 12.7564 84.3195 13.1421 84.3195 13.6316C84.3195 13.8245 84.2898 14.0025 84.2305 14.1657C84.186 14.3141 84.1118 14.4698 84.008 14.633C83.9041 14.7962 83.7706 14.9816 83.6074 15.1893C83.4442 15.397 83.2514 15.6418 83.0288 15.9237L81.5602 17.5704L84.4753 21.4201C84.4011 21.9838 84.1786 22.4288 83.8077 22.7552C83.4368 23.0816 82.9917 23.2448 82.4725 23.2448C81.9088 23.2299 81.4563 23.0668 81.1151 22.7552C80.7887 22.4437 80.4698 22.0654 80.1582 21.6203L78.9566 19.9069L76.6868 23.178C76.6127 23.178 76.5311 23.178 76.4421 23.178C76.3531 23.1929 76.2789 23.2003 76.2195 23.2003C75.4629 23.2003 74.8844 23.0445 74.4838 22.733C74.0981 22.4214 73.9053 22.0357 73.9053 21.5758C73.9053 21.2198 73.9869 20.9083 74.15 20.6412C74.3281 20.3594 74.6248 19.9811 75.0401 19.5063L76.8204 17.4368L73.8385 13.9432ZM87.2247 20.2407C87.0615 19.8698 86.8835 19.4544 86.6906 18.9945C86.5126 18.5346 86.3197 18.008 86.112 17.4146C85.9192 16.8212 85.7115 16.1462 85.489 15.3896C85.2813 14.6182 85.0587 13.7355 84.8214 12.7415C85.0291 12.5339 85.3035 12.3558 85.6447 12.2075C86.0008 12.0443 86.3865 11.9627 86.8019 11.9627C87.3211 11.9627 87.7513 12.074 88.0925 12.2965C88.4337 12.5042 88.6859 12.9047 88.8491 13.4981L90.6071 19.6176H90.6961C90.8741 19.1132 91.0447 18.5643 91.2079 17.9709C91.3859 17.3775 91.5565 16.7693 91.7197 16.1462C91.8829 15.5083 92.0312 14.8778 92.1647 14.2547C92.3131 13.6168 92.4392 12.9937 92.543 12.3855C93.0771 12.1036 93.6631 11.9627 94.301 11.9627C94.8202 11.9627 95.2504 12.074 95.5917 12.2965C95.9329 12.519 96.1035 12.9047 96.1035 13.4536C96.1035 13.8542 96.0515 14.3215 95.9477 14.8555C95.8438 15.3748 95.7029 15.9311 95.5249 16.5245C95.3617 17.1179 95.1614 17.7335 94.9241 18.3715C94.7015 18.9945 94.4642 19.6102 94.212 20.2184C93.9598 20.8267 93.7002 21.4052 93.4331 21.9541C93.1661 22.4882 92.9065 22.9703 92.6543 23.4005C92.2389 24.1275 91.8532 24.7209 91.4972 25.1808C91.1411 25.6406 90.7999 25.9967 90.4736 26.2489C90.1472 26.5159 89.8208 26.6939 89.4944 26.7829C89.1681 26.8868 88.8269 26.9387 88.4708 26.9387C87.8477 26.9387 87.3434 26.7533 86.9576 26.3824C86.5719 26.0115 86.342 25.5294 86.2678 24.936C86.7425 24.5651 87.2173 24.1497 87.692 23.6898C88.1667 23.2448 88.5969 22.7849 88.9826 22.3102C88.7304 22.236 88.456 22.0654 88.1593 21.7984C87.8774 21.5165 87.5659 20.9973 87.2247 20.2407Z" fill="white"/>
<path d="M60.5386 37.6896C60.3457 37.8528 60.0935 37.9863 59.782 38.0901C59.4853 38.1792 59.1367 38.2237 58.7361 38.2237C58.2021 38.2237 57.757 38.1569 57.401 38.0234C57.0597 37.8899 56.8372 37.6599 56.7334 37.3336C56.318 36.0281 55.9768 34.9748 55.7098 34.1737C55.4427 33.3578 55.235 32.6457 55.0867 32.0374H54.9754C54.9309 32.9127 54.8938 33.7138 54.8642 34.4407C54.8493 35.1528 54.8345 35.85 54.8197 36.5325C54.8197 37.2149 54.8048 37.9047 54.7751 38.602C54.7603 39.2992 54.7306 40.0706 54.6861 40.9162C54.4933 40.9904 54.2411 41.0497 53.9295 41.0942C53.618 41.1536 53.3065 41.1833 52.9949 41.1833C52.3422 41.1833 51.8304 41.0794 51.4595 40.8717C51.1035 40.664 50.9254 40.2857 50.9254 39.7368L51.5708 28.388C51.6895 28.1951 51.9491 27.9875 52.3496 27.7649C52.7502 27.5424 53.3139 27.4311 54.0408 27.4311C54.8271 27.4311 55.4427 27.5572 55.8878 27.8094C56.3328 28.0468 56.6592 28.4399 56.8669 28.9888C57.0004 29.3449 57.1413 29.7528 57.2897 30.2127C57.4529 30.6726 57.6086 31.1473 57.757 31.6369C57.9202 32.1264 58.076 32.616 58.2243 33.1056C58.3727 33.5803 58.5062 34.0105 58.6249 34.3962H58.7361C59.0922 33.1501 59.4482 31.9484 59.8042 30.7913C60.1603 29.6193 60.4867 28.6402 60.7834 27.8539C61.0059 27.7353 61.2877 27.6388 61.629 27.5647C61.985 27.4756 62.3781 27.4311 62.8083 27.4311C63.5353 27.4311 64.1287 27.5424 64.5885 27.7649C65.0484 27.9726 65.3155 28.2767 65.3896 28.6773C65.449 28.974 65.5083 29.4339 65.5677 30.0569C65.6418 30.6652 65.716 31.355 65.7902 32.1264C65.8644 32.8979 65.9385 33.7138 66.0127 34.5742C66.0869 35.4347 66.1537 36.2654 66.213 37.0665C66.2872 37.8528 66.3465 38.5797 66.391 39.2473C66.4355 39.9 66.4652 40.4044 66.48 40.7605C66.2278 40.9088 65.9608 41.0127 65.6789 41.072C65.4119 41.1462 65.0633 41.1833 64.6331 41.1833C64.0693 41.1833 63.5946 41.0868 63.2089 40.894C62.8232 40.7011 62.6155 40.3228 62.5858 39.7591C62.4968 38.1421 62.4375 36.6882 62.4078 35.3976C62.393 34.1069 62.3633 33.024 62.3188 32.1487H62.2075C62.0592 32.7273 61.8441 33.4542 61.5622 34.3295C61.2803 35.2047 60.9391 36.3248 60.5386 37.6896ZM73.2865 38.602C73.5387 38.602 73.8132 38.5797 74.1099 38.5352C74.4214 38.4759 74.6514 38.4017 74.7997 38.3127V36.5325L73.1975 36.666C72.7821 36.6956 72.4409 36.7847 72.1739 36.933C71.9069 37.0814 71.7734 37.3039 71.7734 37.6006C71.7734 37.8973 71.8846 38.1421 72.1072 38.3349C72.3445 38.5129 72.7376 38.602 73.2865 38.602ZM73.1085 29.8567C73.9096 29.8567 74.6365 29.9383 75.2893 30.1015C75.9569 30.2646 76.5206 30.5168 76.9805 30.858C77.4552 31.1844 77.8187 31.6072 78.0709 32.1264C78.323 32.6308 78.4491 33.2317 78.4491 33.9289V38.9135C78.4491 39.2992 78.3379 39.6182 78.1154 39.8704C77.9077 40.1077 77.6555 40.3154 77.3588 40.4934C76.3945 41.072 75.0371 41.3613 73.2865 41.3613C72.5003 41.3613 71.7882 41.2871 71.1503 41.1387C70.5272 40.9904 69.9857 40.7679 69.5258 40.4712C69.0808 40.1745 68.7322 39.7962 68.48 39.3363C68.2426 38.8764 68.1239 38.3423 68.1239 37.7341C68.1239 36.7105 68.4281 35.9242 69.0363 35.3753C69.6445 34.8264 70.5866 34.4852 71.8624 34.3517L74.7775 34.0402V33.8844C74.7775 33.4542 74.5846 33.1501 74.1989 32.972C73.828 32.7792 73.2865 32.6828 72.5745 32.6828C72.0107 32.6828 71.4618 32.7421 70.9278 32.8608C70.3937 32.9795 69.9116 33.1278 69.4813 33.3058C69.2885 33.1723 69.1253 32.972 68.9918 32.705C68.8583 32.4231 68.7915 32.1339 68.7915 31.8372C68.7915 31.4514 68.8805 31.1473 69.0585 30.9248C69.2514 30.6874 69.5407 30.4872 69.9264 30.324C70.3566 30.1608 70.861 30.0421 71.4396 29.9679C72.033 29.8938 72.5893 29.8567 73.1085 29.8567ZM84.5451 37.289C84.5451 37.6748 84.6638 37.9492 84.9012 38.1124C85.1534 38.2756 85.502 38.3572 85.9471 38.3572C86.1696 38.3572 86.3995 38.3423 86.6369 38.3127C86.8743 38.2682 87.0819 38.2162 87.26 38.1569C87.3935 38.3201 87.5047 38.5055 87.5938 38.7132C87.6976 38.9061 87.7495 39.1434 87.7495 39.4253C87.7495 39.989 87.5344 40.4489 87.1042 40.805C86.6888 41.161 85.9471 41.339 84.8789 41.339C83.5734 41.339 82.5647 41.0423 81.8526 40.4489C81.1553 39.8555 80.8067 38.8912 80.8067 37.5561V28.032C80.9699 27.9875 81.1998 27.943 81.4965 27.8984C81.8081 27.8391 82.1344 27.8094 82.4757 27.8094C83.1284 27.8094 83.6328 27.9281 83.9888 28.1655C84.3597 28.388 84.5451 28.8701 84.5451 29.6119V31.0361H87.4602C87.5492 31.1992 87.6308 31.4069 87.705 31.6591C87.794 31.8965 87.8385 32.1635 87.8385 32.4602C87.8385 32.9795 87.7199 33.3578 87.4825 33.5951C87.26 33.8176 86.9558 33.9289 86.5701 33.9289H84.5451V37.289ZM95.6388 32.8385C95.2679 32.8385 94.9118 32.8979 94.5706 33.0165C94.2443 33.1352 93.955 33.3132 93.7028 33.5506C93.4654 33.7731 93.2726 34.055 93.1242 34.3962C92.9759 34.7374 92.9017 35.138 92.9017 35.5978C92.9017 36.5176 93.1613 37.2075 93.6805 37.6673C94.2146 38.1272 94.8599 38.3572 95.6165 38.3572C96.0616 38.3572 96.4473 38.3053 96.7736 38.2014C97.1 38.0976 97.3893 37.9863 97.6415 37.8676C97.9382 38.0753 98.1607 38.3053 98.3091 38.5574C98.4574 38.7948 98.5316 39.0841 98.5316 39.4253C98.5316 40.0335 98.2423 40.5083 97.6638 40.8495C97.0852 41.1758 96.2841 41.339 95.2605 41.339C94.3259 41.339 93.4803 41.2055 92.7237 40.9385C91.9671 40.6566 91.3143 40.2709 90.7654 39.7813C90.2314 39.2769 89.816 38.6761 89.5193 37.9789C89.2226 37.2816 89.0742 36.5102 89.0742 35.6646C89.0742 34.6855 89.23 33.8325 89.5416 33.1056C89.8679 32.3638 90.3056 31.7556 90.8545 31.2808C91.4034 30.8061 92.0338 30.4501 92.7459 30.2127C93.4728 29.9754 94.2369 29.8567 95.0379 29.8567C96.1061 29.8567 96.9294 30.0495 97.508 30.4352C98.0866 30.821 98.3758 31.3179 98.3758 31.9262C98.3758 32.208 98.3091 32.4751 98.1756 32.7273C98.042 32.9646 97.8863 33.1723 97.7083 33.3503C97.4561 33.2317 97.1519 33.1204 96.7959 33.0165C96.4399 32.8979 96.0541 32.8385 95.6388 32.8385ZM111.11 40.983C110.962 41.0275 110.724 41.072 110.398 41.1165C110.086 41.161 109.76 41.1833 109.419 41.1833C109.092 41.1833 108.796 41.161 108.529 41.1165C108.277 41.072 108.061 40.983 107.883 40.8495C107.705 40.7159 107.564 40.5379 107.461 40.3154C107.372 40.078 107.327 39.7739 107.327 39.403V34.463C107.327 33.8547 107.171 33.4319 106.86 33.1946C106.563 32.9424 106.192 32.8163 105.747 32.8163C105.45 32.8163 105.169 32.8534 104.902 32.9275C104.635 33.0017 104.419 33.0907 104.256 33.1946V40.983C104.108 41.0275 103.871 41.072 103.544 41.1165C103.233 41.161 102.906 41.1833 102.565 41.1833C102.239 41.1833 101.942 41.161 101.675 41.1165C101.423 41.072 101.208 40.983 101.03 40.8495C100.852 40.7159 100.711 40.5379 100.607 40.3154C100.518 40.078 100.473 39.7739 100.473 39.403V26.4965C100.637 26.4669 100.874 26.4298 101.185 26.3853C101.512 26.3259 101.838 26.2963 102.165 26.2963C102.491 26.2963 102.78 26.3185 103.032 26.363C103.299 26.4075 103.522 26.4965 103.7 26.63C103.878 26.7636 104.011 26.949 104.1 27.1864C104.204 27.4089 104.256 27.7056 104.256 28.0765V30.2572C104.449 30.183 104.738 30.1015 105.124 30.0124C105.525 29.9086 105.962 29.8567 106.437 29.8567C107.906 29.8567 109.048 30.2276 109.864 30.9693C110.695 31.6962 111.11 32.7866 111.11 34.2404V40.983ZM119.165 41.3613C118.289 41.3613 117.473 41.2426 116.717 41.0052C115.975 40.753 115.322 40.3822 114.759 39.8926C114.21 39.403 113.772 38.7874 113.446 38.0456C113.134 37.3039 112.978 36.436 112.978 35.4421C112.978 34.463 113.134 33.6248 113.446 32.9275C113.772 32.2155 114.195 31.6369 114.714 31.1918C115.233 30.7319 115.827 30.3982 116.494 30.1905C117.162 29.9679 117.844 29.8567 118.542 29.8567C119.328 29.8567 120.04 29.9754 120.678 30.2127C121.331 30.4501 121.887 30.7764 122.347 31.1918C122.821 31.6072 123.185 32.1042 123.437 32.6828C123.704 33.2613 123.838 33.8918 123.838 34.5742C123.838 35.0786 123.697 35.4643 123.415 35.7314C123.133 35.9984 122.74 36.169 122.236 36.2432L116.739 37.0665C116.902 37.5561 117.236 37.927 117.74 38.1792C118.245 38.4165 118.823 38.5352 119.476 38.5352C120.084 38.5352 120.656 38.461 121.19 38.3127C121.739 38.1495 122.184 37.964 122.525 37.7564C122.762 37.9047 122.962 38.1124 123.126 38.3794C123.289 38.6465 123.37 38.9283 123.37 39.225C123.37 39.8926 123.059 40.3896 122.436 40.7159C121.961 40.9681 121.427 41.1387 120.834 41.2278C120.24 41.3168 119.684 41.3613 119.165 41.3613ZM118.542 32.616C118.186 32.616 117.874 32.6753 117.607 32.794C117.355 32.9127 117.147 33.0685 116.984 33.2613C116.821 33.4393 116.695 33.647 116.606 33.8844C116.531 34.1069 116.487 34.3369 116.472 34.5742L120.277 33.9512C120.233 33.6545 120.07 33.3578 119.788 33.0611C119.506 32.7643 119.09 32.616 118.542 32.616ZM134.782 37.7786C134.782 38.9061 134.359 39.7888 133.514 40.4267C132.668 41.0646 131.422 41.3835 129.775 41.3835C129.152 41.3835 128.574 41.339 128.04 41.25C127.506 41.161 127.046 41.0275 126.66 40.8495C126.289 40.6566 125.992 40.4192 125.77 40.1374C125.562 39.8555 125.458 39.5217 125.458 39.136C125.458 38.78 125.532 38.4833 125.681 38.2459C125.829 37.9937 126.007 37.786 126.215 37.6228C126.645 37.8602 127.135 38.0753 127.684 38.2682C128.247 38.4462 128.893 38.5352 129.62 38.5352C130.079 38.5352 130.428 38.4684 130.665 38.3349C130.918 38.2014 131.044 38.0234 131.044 37.8009C131.044 37.5932 130.955 37.43 130.777 37.3113C130.599 37.1926 130.302 37.0962 129.887 37.022L129.219 36.8885C127.928 36.6363 126.964 36.2432 126.326 35.7091C125.703 35.1602 125.392 34.3814 125.392 33.3726C125.392 32.8237 125.51 32.3267 125.748 31.8817C125.985 31.4366 126.319 31.0657 126.749 30.769C127.179 30.4723 127.691 30.2424 128.284 30.0792C128.893 29.916 129.56 29.8344 130.287 29.8344C130.836 29.8344 131.348 29.8789 131.823 29.9679C132.312 30.0421 132.735 30.1608 133.091 30.324C133.447 30.4872 133.729 30.7023 133.937 30.9693C134.144 31.2215 134.248 31.5256 134.248 31.8817C134.248 32.2229 134.181 32.5196 134.048 32.7718C133.929 33.0091 133.773 33.2094 133.581 33.3726C133.462 33.2984 133.284 33.2242 133.046 33.1501C132.809 33.0611 132.549 32.9869 132.268 32.9275C131.986 32.8534 131.696 32.794 131.4 32.7495C131.118 32.705 130.858 32.6828 130.621 32.6828C130.131 32.6828 129.753 32.7421 129.486 32.8608C129.219 32.9646 129.085 33.1352 129.085 33.3726C129.085 33.5358 129.16 33.6693 129.308 33.7731C129.456 33.877 129.738 33.9734 130.154 34.0624L130.843 34.2182C132.268 34.5446 133.276 34.997 133.87 35.5756C134.478 36.1393 134.782 36.8737 134.782 37.7786Z" fill="white"/>
<defs>
<clipPath id="clip0">
<path d="M0 1.84668H47.2753V49.122H0V1.84668Z" fill="white"/>
</clipPath>
</defs>
</svg>
