<?xml version="1.0" encoding="UTF-8"?>
<svg width="104" height="64" viewBox="0 0 104 64" fill="none" xmlns="http://www.w3.org/2000/svg">
<g clip-path="url(#clip0_1122_43923)">
<g filter="url(#filter0_f_1122_43923)">
<path d="M87.4673 37.7074C69.2741 37.4256 52.4883 38.9405 41.6096 40.2589C29.8177 41.6886 22.2201 43.2091 22.1451 43.224C21.8203 43.2889 21.6371 43.5188 21.7343 43.7357C21.8148 43.9137 22.0591 44.0269 22.3228 44.0269C22.3811 44.0269 22.4421 44.0213 22.5004 44.0102C22.5754 43.9953 30.1064 42.4897 41.8289 41.0674C52.6521 39.7546 69.3491 38.247 87.4395 38.5289C87.7782 38.5326 88.0585 38.3546 88.0668 38.1284C88.0752 37.9003 87.8059 37.7112 87.4673 37.7074Z" fill="#FD4AFF" fill-opacity="0.5"/>
<path d="M22.6752 29.6283C27.0777 28.6363 28.4129 28.5974 28.4185 28.5974C28.7571 28.5955 29.0292 28.4101 29.0264 28.1839C29.0236 27.9576 28.7488 27.7741 28.4074 27.7778C28.2658 27.7778 26.8889 27.8148 22.3087 28.8458C23.9521 26.1441 26.1339 23.1087 28.9403 20.2494C28.957 20.2327 28.9709 20.216 28.982 20.1993C35.1722 19.1257 42.8364 18.1985 51.7609 17.7312C52.0995 17.7127 52.3522 17.5161 52.3244 17.2899C52.2966 17.0637 52.0024 16.895 51.6637 16.9135C39.1445 17.5681 29.7953 19.0997 24.1547 20.2698C17.537 21.6419 12.5015 23.2477 10.6917 24.5624C9.59795 25.3579 9.13993 26.1571 9.33147 26.9396C9.63126 28.1597 11.4273 28.8273 11.505 28.8551C11.5994 28.8885 11.6993 28.9052 11.7992 28.9052C12.0157 28.9052 12.2267 28.8291 12.3378 28.6919C12.5015 28.4935 12.3933 28.245 12.0962 28.1356C12.0824 28.1301 10.7416 27.6257 10.5445 26.8006C10.4196 26.2814 10.7722 25.7139 11.5966 25.1169C13.1594 23.982 18.5946 22.1222 27.2276 20.5127C24.4823 23.4443 22.3615 26.5057 20.782 29.187C17.19 29.9862 15.3524 30.3626 15.3329 30.3682C15.0082 30.435 14.8249 30.663 14.9249 30.88C15.0054 31.0561 15.2497 31.1711 15.5106 31.1711C15.5689 31.1711 15.63 31.1655 15.691 31.1526C15.7105 31.1489 17.2344 30.8373 20.2129 30.1791C19.6522 31.1804 19.172 32.1149 18.7695 32.9512C16.9679 36.6802 16.2295 39.5599 16.224 39.5877C16.1629 39.8102 16.385 40.0235 16.7181 40.0643C16.7542 40.068 16.793 40.0717 16.8291 40.0717C17.1206 40.0717 17.3788 39.9326 17.4315 39.7342C17.4398 39.7082 18.1671 36.8693 19.9465 33.1886C20.4267 32.1947 21.0152 31.0617 21.7202 29.8434C22.0256 29.7748 22.3448 29.7044 22.6752 29.6283Z" fill="#FD4AFF" fill-opacity="0.5"/>
<path d="M94.4456 29.8026C94.1319 29.7173 93.7738 29.8174 93.6434 30.027C92.2416 32.3077 88.186 34.5551 86.2956 34.4995C85.8931 34.4884 85.6683 34.3715 85.5433 34.1064C85.3268 33.6521 86.1235 31.8089 86.4622 31.0209C86.576 30.7575 86.6731 30.5313 86.737 30.3644C86.8202 30.1438 86.9618 29.7748 86.4538 29.6227C86.3345 29.5875 85.9181 29.4985 85.585 29.8545C84.5496 30.9615 82.9007 32.1316 81.0658 33.0624C79.664 33.7726 78.6564 34.0915 78.1234 34.1954C78.0179 34.2158 77.918 34.1546 77.9402 34.0823C78.0401 33.7596 78.3122 33.2478 78.5092 32.8751C79.0922 31.7774 79.6418 30.739 79.0672 30.1512C78.9117 29.9936 78.6092 29.7989 78.0457 29.7711C76.3718 29.6895 74.2066 31.4603 71.7527 33.6465C71.9443 33.2534 72.1497 32.8455 72.3218 32.5006C72.6022 31.9406 72.8686 31.4121 73.0546 31.006C73.3489 30.3644 73.4571 30.0937 73.124 29.8842C72.9436 29.7692 72.6827 29.7377 72.4495 29.7989C72.2135 29.8619 72.0886 29.9621 71.2003 30.7223C70.2649 31.5215 68.8519 32.7305 67.4279 33.6743C65.2766 35.1021 64.4605 35.0113 64.2606 34.9482C64.2523 34.9445 63.4223 34.557 65.3099 30.5239C65.346 30.4497 65.371 30.3904 65.3904 30.3496C65.5708 29.9509 65.1433 29.8137 65.0545 29.7896C64.7575 29.7099 64.4216 29.7952 64.2717 29.9899C64.169 30.1123 62.9393 31.3936 61.4514 32.6953C58.9115 34.9167 57.8122 35.2987 57.4597 35.3599C57.06 35.4285 56.7768 35.4155 56.6158 35.3209C56.3244 35.1503 56.3049 34.6905 56.341 34.4958L56.3466 34.4624C56.416 33.45 57.5652 31.0116 58.8421 28.5788C61.4486 28.0262 62.0427 27.9909 62.0427 27.9909C62.0427 27.9909 62.5257 27.9205 62.4702 27.5311C62.4146 27.1417 62.026 27.1695 62.026 27.1695C61.9067 27.1714 61.3792 27.201 59.3528 27.6127C60.8407 24.8442 62.3314 22.3391 62.3591 22.289C62.484 22.0776 62.3314 21.8403 62.0149 21.7568C61.6985 21.6734 61.3432 21.7754 61.2182 21.9868C61.0905 22.2019 59.4361 24.9852 57.8816 27.9223C57.443 28.0169 56.9573 28.1245 56.4215 28.245C52.0301 29.2333 50.6393 29.3056 50.6033 29.3075C50.2674 29.3186 50.0064 29.5096 50.0203 29.734C50.0342 29.9546 50.3062 30.1271 50.6338 30.1271C50.6421 30.1271 50.6504 30.1271 50.6588 30.1271C50.8059 30.1234 52.2216 30.0585 56.8129 29.0238C57.0072 28.9811 57.1932 28.9385 57.3709 28.8995C56.4465 30.7001 55.6248 32.4561 55.2806 33.6168C55.2778 33.6187 55.2778 33.6187 55.2751 33.6206C52.8129 35.3951 50.2452 36.1127 49.4096 35.9291C49.293 35.9032 49.1653 35.8587 49.132 35.6566C49.0515 35.1856 49.5123 34.6015 49.9204 34.086C50.3951 33.4833 50.8059 32.9641 50.4117 32.5284C50.0453 32.1223 49.207 32.1223 48.9322 32.1223C48.5658 32.1223 48.2382 32.1075 47.944 32.0815C48.1716 31.5104 47.9634 31.1395 47.7136 30.9152C47.3471 30.5851 46.7059 30.4219 46.0397 30.4868C45.454 30.5443 45.0043 30.765 44.835 31.0783C44.6629 31.3917 44.7406 31.7255 45.0459 32.0203C45.3069 32.2688 45.7121 32.4728 46.2368 32.6248C44.8932 34.1935 41.7898 36.5262 39.6857 36.9824C39.5691 37.0083 39.4581 37.0269 39.3526 37.0399C38.9667 37.0862 38.6225 36.8674 38.6753 36.6078C38.7086 36.4483 38.7724 36.2351 38.8835 35.9495C39.1111 35.3673 39.4581 34.696 39.7662 34.1027C40.413 32.851 40.5573 32.5469 40.3241 32.2836C40.2242 32.1705 40.0549 32.0926 39.8633 32.0722C39.3443 32.0147 39.0972 32.2391 37.7342 33.4815C36.1076 34.9649 32.721 38.0523 30.8362 38.0746C30.1117 38.0838 29.8924 37.8928 29.823 37.8298C29.3927 37.4534 29.6009 36.6653 29.7091 36.415C30.1977 35.2616 30.7057 34.1843 31.2248 33.1885C32.8459 32.3411 34.3782 31.4028 35.4997 30.4293C37.9979 28.2617 40.8488 25.3987 40.2214 24.0636C40.066 23.7298 39.7162 23.4962 39.211 23.3886C38.8224 23.3052 38.3921 23.3478 37.9313 23.5129C35.9771 24.2156 32.9125 27.4996 30.1866 32.6804C26.3059 34.6664 21.945 36.1331 21.8839 36.1535C21.5814 36.2555 21.4564 36.5021 21.6091 36.7042C21.7618 36.9064 22.131 36.9898 22.4336 36.8878C22.6612 36.8118 26.0283 35.6788 29.501 34.0415C29.1679 34.7276 28.8431 35.4433 28.5294 36.1869C28.4683 36.3241 27.9603 37.5498 28.8431 38.3249C29.1401 38.5863 29.7203 38.8941 30.789 38.8941C30.8112 38.8941 30.8334 38.8941 30.8584 38.8941C33.0624 38.8682 35.7661 36.6449 38.3782 34.2807C37.4233 36.1591 37.2734 37.1363 38.1589 37.6277C38.678 37.9151 39.2693 37.9355 40.0688 37.7612C42.6226 37.2049 46.0591 34.5774 47.4471 32.8584C47.8995 32.9122 48.3992 32.94 48.9322 32.94C49.1431 32.94 49.2653 32.953 49.3347 32.966C49.2903 33.1255 49.021 33.4667 48.835 33.7021C48.3687 34.2918 47.7885 35.028 47.9134 35.7493C47.9967 36.2277 48.3936 36.5689 49.0293 36.7079C49.2375 36.7543 49.4679 36.7747 49.7177 36.7747C51.1418 36.7747 53.1848 36.0571 55.1085 34.8852C55.1502 35.219 55.3112 35.6491 55.7997 35.9366C56.0412 36.0793 56.4326 36.2221 57.0183 36.2221C57.2376 36.2221 57.4874 36.2017 57.765 36.1535C58.162 36.0849 59.3667 35.8772 62.4702 33.1533C62.7311 32.9252 62.9837 32.6953 63.228 32.4728C62.5784 34.3901 62.7533 35.3821 63.7387 35.6899C63.9747 35.7623 64.2218 35.7975 64.4827 35.7975C66.3869 35.7975 68.913 33.9506 71.2947 31.9628C71.2475 32.0555 71.2031 32.1464 71.1587 32.2354C69.7902 34.9594 69.7319 35.2245 70.0178 35.4915C70.1399 35.6065 70.3398 35.6733 70.548 35.6733C70.9977 35.6733 71.2309 35.4767 72.555 34.2937C73.421 33.5204 74.4981 32.5599 75.5557 31.7885C77.1324 30.6407 77.7875 30.5777 77.9513 30.5851C78.0068 30.5888 78.0346 30.5944 78.0346 30.5944C78.0346 30.5962 78.1623 30.7112 77.9874 31.2378C77.8541 31.642 77.596 32.1279 77.3461 32.597C77.0991 33.0643 76.8631 33.5056 76.7466 33.8709C76.5578 34.4587 76.7327 34.8333 77.2601 34.9853C78.3593 35.3005 80.4995 34.3623 81.6765 33.7745C82.823 33.2015 83.9056 32.5395 84.8327 31.8497C84.3941 32.953 84.136 33.8598 84.3664 34.3474C84.6495 34.9445 85.3129 35.2876 86.2373 35.3135C86.2734 35.3154 86.3095 35.3154 86.3483 35.3154C88.9743 35.3154 93.2603 32.7917 94.7732 30.3329C94.9092 30.1289 94.7593 29.8897 94.4456 29.8026ZM38.517 24.2397C38.6669 24.186 38.7669 24.1711 38.8168 24.1711C38.8279 24.1711 38.839 24.1711 38.8446 24.173C38.964 24.1989 39.0195 24.2342 39.0556 24.312C39.3165 24.8683 38.2894 26.6744 34.5309 29.9324C33.8508 30.522 33.0014 31.1024 32.0659 31.6569C34.5864 27.2622 37.1652 24.7274 38.517 24.2397ZM46.7559 31.8831C46.4033 31.783 46.1729 31.6643 46.0563 31.553C46.0563 31.5512 46.0536 31.5512 46.0536 31.5493C45.9564 31.4548 46.0397 31.3231 46.209 31.3027C46.2479 31.299 46.2867 31.2953 46.3284 31.2953C46.4255 31.2953 46.5282 31.3083 46.6199 31.3435C46.8697 31.4381 46.8419 31.6754 46.7559 31.8831Z" fill="#FD4AFF" fill-opacity="0.5"/>
<path d="M40.4909 29.2426L40.1633 29.9528C40.0634 30.1697 40.2466 30.3997 40.5686 30.4646C40.6297 30.4776 40.6908 30.4831 40.749 30.4831C41.0128 30.4831 41.2543 30.37 41.3348 30.1939L41.6623 29.4837C41.7622 29.2667 41.579 29.0368 41.257 28.9719C40.9323 28.9033 40.5908 29.0257 40.4909 29.2426Z" fill="#FD4AFF" fill-opacity="0.5"/>
<path d="M65.6237 28.1431C65.6848 28.156 65.7459 28.1616 65.8042 28.1616C66.0679 28.1616 66.3094 28.0485 66.3899 27.8723L66.7174 27.1621C66.8174 26.9452 66.6342 26.7153 66.3122 26.6504C65.9874 26.5836 65.6432 26.706 65.546 26.9211L65.2185 27.6313C65.1158 27.8464 65.299 28.0763 65.6237 28.1431Z" fill="#FD4AFF" fill-opacity="0.5"/>
<path d="M87.1563 27.9873C87.2174 28.0003 87.2785 28.0058 87.3368 28.0058C87.6005 28.0058 87.842 27.8927 87.9225 27.7166L88.25 27.0064C88.35 26.7894 88.1668 26.5595 87.8448 26.4946C87.52 26.4278 87.1758 26.5502 87.0786 26.7653L86.751 27.4755C86.6483 27.6906 86.8315 27.9205 87.1563 27.9873Z" fill="#FD4AFF" fill-opacity="0.5"/>
</g>
<g filter="url(#filter1_f_1122_43923)">
<path d="M87.4673 38.8969C69.2741 38.6681 52.4883 39.898 41.6096 40.9684C29.8177 42.1291 22.2201 43.3636 22.1451 43.3756C21.8204 43.4283 21.6371 43.615 21.7343 43.7911C21.8148 43.9356 22.0591 44.0274 22.3228 44.0274C22.3811 44.0274 22.4421 44.0229 22.5004 44.0139C22.5754 44.0019 30.1064 42.7794 41.8289 41.6248C52.6521 40.5589 69.3491 39.335 87.4395 39.5638C87.7782 39.5668 88.0585 39.4223 88.0669 39.2387C88.0752 39.0535 87.8059 38.8999 87.4673 38.8969Z" fill="#FD4AFF" fill-opacity="0.5"/>
<path d="M22.6752 32.3378C27.0777 31.5323 28.4129 31.5007 28.4185 31.5007C28.7571 31.4992 29.0292 31.3487 29.0264 31.165C29.0236 30.9814 28.7488 30.8323 28.4074 30.8353C28.2658 30.8353 26.8889 30.8654 22.3087 31.7025C23.9521 29.509 26.1339 27.0446 28.9403 24.7233C28.957 24.7097 28.9709 24.6962 28.982 24.6826C35.1722 23.811 42.8364 23.0583 51.7609 22.6789C52.0996 22.6638 52.3522 22.5043 52.3244 22.3206C52.2966 22.1369 52.0024 21.9999 51.6637 22.015C39.1445 22.5464 29.7953 23.7899 24.1547 24.7398C17.537 25.8538 12.5015 27.1576 10.6917 28.2249C9.59795 28.8707 9.13993 29.5196 9.33147 30.1549C9.63126 31.1454 11.4273 31.6874 11.505 31.71C11.5994 31.7371 11.6993 31.7506 11.7992 31.7506C12.0157 31.7506 12.2267 31.6889 12.3378 31.5775C12.5015 31.4164 12.3933 31.2147 12.0962 31.1259C12.0824 31.1214 10.7416 30.7119 10.5445 30.042C10.4196 29.6204 10.7722 29.1598 11.5966 28.675C13.1594 27.7537 18.5946 26.2438 27.2276 24.937C24.4823 27.3171 22.3615 29.8026 20.782 31.9795C17.19 32.6283 15.3524 32.9339 15.3329 32.9384C15.0082 32.9926 14.8249 33.1778 14.9249 33.3539C15.0054 33.4969 15.2497 33.5903 15.5106 33.5903C15.5689 33.5903 15.63 33.5858 15.691 33.5752C15.7105 33.5722 17.2344 33.3193 20.2129 32.7849C19.6522 33.5978 19.172 34.3565 18.7695 35.0355C16.9679 38.0629 16.2295 40.4009 16.224 40.4234C16.1629 40.6041 16.385 40.7772 16.7181 40.8103C16.7542 40.8133 16.793 40.8164 16.8291 40.8164C17.1206 40.8164 17.3788 40.7035 17.4315 40.5424C17.4398 40.5213 18.1671 38.2165 19.9465 35.2282C20.4267 34.4213 21.0152 33.5015 21.7202 32.5124C22.0256 32.4567 22.3448 32.3995 22.6752 32.3378Z" fill="#FD4AFF" fill-opacity="0.5"/>
<path d="M94.4456 32.4792C94.1319 32.41 93.7739 32.4913 93.6434 32.6614C92.2416 34.5131 88.186 36.3376 86.2956 36.2925C85.8931 36.2835 85.6683 36.1886 85.5434 35.9733C85.3268 35.6045 86.1235 34.1081 86.4622 33.4683C86.576 33.2545 86.6731 33.0709 86.737 32.9354C86.8203 32.7562 86.9618 32.4566 86.4538 32.3332C86.3345 32.3046 85.9181 32.2323 85.585 32.5214C84.5496 33.4201 82.9007 34.37 81.0658 35.1258C79.664 35.7024 78.6564 35.9613 78.1234 36.0456C78.0179 36.0622 77.918 36.0125 77.9402 35.9538C78.0401 35.6918 78.3122 35.2763 78.5093 34.9737C79.0922 34.0825 79.6418 33.2395 79.0672 32.7622C78.9118 32.6343 78.6092 32.4762 78.0457 32.4536C76.3718 32.3874 74.2066 33.8251 71.7527 35.6C71.9443 35.2808 72.1497 34.9496 72.3218 34.6696C72.6022 34.215 72.8686 33.7859 73.0546 33.4562C73.3489 32.9354 73.4571 32.7156 73.124 32.5455C72.9436 32.4521 72.6827 32.4265 72.4495 32.4762C72.2135 32.5274 72.0886 32.6087 71.2003 33.2259C70.2649 33.8748 68.8519 34.8563 67.4279 35.6226C65.2766 36.7817 64.4605 36.708 64.2606 36.6568C64.2523 36.6538 63.4223 36.3392 65.3099 33.0648C65.346 33.0046 65.371 32.9564 65.3904 32.9233C65.5708 32.5997 65.1434 32.4882 65.0545 32.4687C64.7575 32.4039 64.4216 32.4732 64.2717 32.6313C64.169 32.7306 62.9393 33.7709 61.4514 34.8277C58.9115 36.6312 57.8122 36.9413 57.4597 36.991C57.06 37.0467 56.7768 37.0362 56.6158 36.9594C56.3244 36.8209 56.3049 36.4475 56.341 36.2895L56.3466 36.2624C56.416 35.4404 57.5652 33.4608 58.8421 31.4856C61.4486 31.037 62.0427 31.0084 62.0427 31.0084C62.0427 31.0084 62.5257 30.9512 62.4702 30.6351C62.4147 30.3189 62.026 30.3415 62.026 30.3415C61.9067 30.343 61.3792 30.3671 59.3529 30.7013C60.8407 28.4537 62.3314 26.4198 62.3591 26.3792C62.4841 26.2076 62.3314 26.0149 62.0149 25.9471C61.6985 25.8794 61.3432 25.9622 61.2182 26.1338C61.0906 26.3084 59.4361 28.5681 57.8816 30.9527C57.443 31.0295 56.9573 31.1168 56.4215 31.2147C52.0301 32.017 50.6393 32.0758 50.6033 32.0773C50.2674 32.0863 50.0064 32.2414 50.0203 32.4235C50.0342 32.6027 50.3062 32.7427 50.6338 32.7427C50.6421 32.7427 50.6504 32.7427 50.6588 32.7427C50.8059 32.7397 52.2216 32.687 56.8129 31.8469C57.0072 31.8123 57.1932 31.7777 57.3709 31.7461C56.4465 33.2078 55.6248 34.6335 55.2806 35.5759C55.2779 35.5774 55.2778 35.5774 55.2751 35.5789C52.8129 37.0196 50.2452 37.6022 49.4096 37.4532C49.293 37.4321 49.1653 37.396 49.132 37.2319C49.0515 36.8495 49.5123 36.3753 49.9204 35.9568C50.3951 35.4675 50.8059 35.046 50.4117 34.6922C50.0453 34.3625 49.207 34.3625 48.9322 34.3625C48.5658 34.3625 48.2382 34.3505 47.944 34.3294C48.1716 33.8657 47.9634 33.5646 47.7136 33.3825C47.3471 33.1145 46.7059 32.982 46.0397 33.0347C45.454 33.0814 45.0043 33.2605 44.835 33.515C44.6629 33.7694 44.7406 34.0404 45.0459 34.2797C45.3069 34.4814 45.7121 34.647 46.2368 34.7705C44.8933 36.0441 41.7898 37.9379 39.6857 38.3083C39.5691 38.3293 39.4581 38.3444 39.3526 38.3549C38.9667 38.3926 38.6225 38.2149 38.6753 38.0042C38.7086 37.8747 38.7724 37.7016 38.8835 37.4697C39.1111 36.997 39.4581 36.4521 39.7662 35.9703C40.413 34.9542 40.5573 34.7073 40.3241 34.4935C40.2242 34.4017 40.0549 34.3384 39.8633 34.3219C39.3443 34.2752 39.0972 34.4574 37.7342 35.466C36.1076 36.6703 32.721 39.1769 30.8362 39.195C30.1117 39.2025 29.8924 39.0474 29.823 38.9962C29.3927 38.6906 29.6009 38.0508 29.7092 37.8476C30.1977 36.9112 30.7057 36.0366 31.2248 35.2281C32.8459 34.5402 34.3782 33.7784 35.4997 32.9881C37.998 31.2282 40.8488 28.9038 40.2214 27.8199C40.066 27.5489 39.7162 27.3592 39.211 27.2719C38.8224 27.2042 38.3921 27.2388 37.9313 27.3728C35.9771 27.9433 32.9125 30.6095 30.1866 34.8157C26.3059 36.428 21.945 37.6188 21.8839 37.6353C21.5814 37.7181 21.4564 37.9184 21.6091 38.0824C21.7618 38.2465 22.131 38.3143 22.4336 38.2315C22.6612 38.1698 26.0283 37.2499 29.501 35.9206C29.1679 36.4777 28.8431 37.0587 28.5294 37.6624C28.4683 37.7738 27.9603 38.7689 28.8431 39.3982C29.1401 39.6105 29.7203 39.8604 30.789 39.8604C30.8112 39.8604 30.8334 39.8604 30.8584 39.8604C33.0624 39.8393 35.7661 38.0343 38.3782 36.1148C37.4233 37.6398 37.2734 38.4332 38.159 38.8321C38.678 39.0655 39.2693 39.0821 40.0688 38.9405C42.6226 38.4889 46.0591 36.3557 47.4471 34.9602C47.8995 35.0038 48.3992 35.0264 48.9322 35.0264C49.1431 35.0264 49.2653 35.037 49.3347 35.0475C49.2903 35.177 49.021 35.454 48.835 35.6451C48.3687 36.1239 47.7885 36.7215 47.9134 37.3071C47.9967 37.6955 48.3937 37.9725 49.0293 38.0855C49.2375 38.1231 49.4679 38.1397 49.7178 38.1397C51.1418 38.1397 53.1848 37.557 55.1085 36.6056C55.1502 36.8766 55.3112 37.2259 55.7997 37.4592C56.0412 37.5751 56.4326 37.691 57.0183 37.691C57.2376 37.691 57.4875 37.6745 57.765 37.6353C58.162 37.5796 59.3667 37.411 62.4702 35.1995C62.7311 35.0144 62.9837 34.8277 63.228 34.647C62.5784 36.2037 62.7533 37.0091 63.7388 37.259C63.9747 37.3177 64.2218 37.3463 64.4827 37.3463C66.387 37.3463 68.913 35.8469 71.2947 34.233C71.2475 34.3083 71.2031 34.3821 71.1587 34.4543C69.7902 36.6658 69.7319 36.8811 70.0178 37.0979C70.1399 37.1912 70.3398 37.2454 70.548 37.2454C70.9977 37.2454 71.2309 37.0858 72.555 36.1254C73.4211 35.4976 74.4981 34.7178 75.5557 34.0915C77.1324 33.1597 77.7875 33.1085 77.9513 33.1145C78.0068 33.1175 78.0346 33.122 78.0346 33.122C78.0346 33.1235 78.1623 33.2169 77.9874 33.6444C77.8541 33.9726 77.596 34.367 77.3462 34.7479C77.0991 35.1273 76.8632 35.4856 76.7466 35.7821C76.5578 36.2594 76.7327 36.5635 77.2601 36.6869C78.3594 36.9428 80.4996 36.1811 81.6765 35.7039C82.823 35.2387 83.9056 34.7012 84.8327 34.1412C84.3941 35.037 84.136 35.7731 84.3664 36.169C84.6495 36.6538 85.313 36.9323 86.2373 36.9534C86.2734 36.9549 86.3095 36.9549 86.3484 36.9549C88.9743 36.9549 93.2603 34.906 94.7732 32.9098C94.9092 32.7442 94.7593 32.55 94.4456 32.4792ZM38.517 27.9629C38.6669 27.9193 38.7669 27.9072 38.8168 27.9072C38.8279 27.9072 38.839 27.9072 38.8446 27.9087C38.964 27.9298 39.0195 27.9584 39.0556 28.0216C39.3165 28.4733 38.2894 29.9396 34.5309 32.5846C33.8508 33.0633 33.0014 33.5345 32.0659 33.9847C34.5864 30.4168 37.1652 28.3588 38.517 27.9629ZM46.7559 34.1683C46.4033 34.087 46.1729 33.9907 46.0564 33.9003C46.0564 33.8988 46.0536 33.8988 46.0536 33.8973C45.9564 33.8206 46.0397 33.7137 46.209 33.6971C46.2479 33.6941 46.2868 33.6911 46.3284 33.6911C46.4255 33.6911 46.5283 33.7016 46.6199 33.7302C46.8697 33.807 46.8419 33.9997 46.7559 34.1683Z" fill="#FD4AFF" fill-opacity="0.5"/>
<path d="M40.4909 32.0246L40.1633 32.6012C40.0634 32.7773 40.2466 32.964 40.5686 33.0167C40.6297 33.0272 40.6908 33.0317 40.7491 33.0317C41.0128 33.0317 41.2543 32.9399 41.3348 32.7969L41.6623 32.2203C41.7622 32.0442 41.579 31.8575 41.257 31.8048C40.9323 31.7491 40.5908 31.8485 40.4909 32.0246Z" fill="#FD4AFF" fill-opacity="0.5"/>
<path d="M65.6238 31.1319C65.6848 31.1424 65.7459 31.147 65.8042 31.147C66.0679 31.147 66.3094 31.0551 66.3899 30.9121L66.7174 30.3355C66.8174 30.1594 66.6342 29.9727 66.3122 29.92C65.9874 29.8658 65.6432 29.9652 65.546 30.1398L65.2185 30.7164C65.1158 30.891 65.299 31.0777 65.6238 31.1319Z" fill="#FD4AFF" fill-opacity="0.5"/>
<path d="M87.1563 31.0054C87.2174 31.016 87.2785 31.0205 87.3368 31.0205C87.6005 31.0205 87.842 30.9287 87.9225 30.7856L88.2501 30.2091C88.35 30.0329 88.1668 29.8462 87.8448 29.7936C87.52 29.7394 87.1758 29.8387 87.0786 30.0134L86.751 30.5899C86.6483 30.7646 86.8316 30.9512 87.1563 31.0054Z" fill="#FD4AFF" fill-opacity="0.5"/>
</g>
<g filter="url(#filter2_f_1122_43923)">
<ellipse cx="57.4928" cy="29.7949" rx="19.1959" ry="11.424" fill="#F445FF" fill-opacity="0.3"/>
</g>
<g filter="url(#filter3_dddd_1122_43923)">
<path d="M84.0344 39.1187C67.6037 38.7317 52.444 40.812 42.6192 42.6225C31.9696 44.5857 25.108 46.6737 25.0403 46.694C24.747 46.7831 24.5816 47.0989 24.6693 47.3968C24.742 47.6413 24.9626 47.7966 25.2008 47.7966C25.2534 47.7966 25.3086 47.7889 25.3612 47.7737C25.4289 47.7533 32.2303 45.6857 42.8173 43.7327C52.592 41.9299 67.6714 39.8597 84.0093 40.2468C84.3152 40.2519 84.5684 40.0074 84.5759 39.6968C84.5834 39.3836 84.3403 39.1238 84.0344 39.1187Z" fill="white"/>
<path d="M25.519 28.0245C29.4951 26.6622 30.7009 26.6087 30.7059 26.6087C31.0118 26.6062 31.2575 26.3515 31.255 26.0409C31.2525 25.7302 31.0043 25.4782 30.6959 25.4833C30.5681 25.4833 29.3246 25.5342 25.1881 26.9499C26.6722 23.24 28.6427 19.0716 31.1772 15.1452C31.1923 15.1223 31.2048 15.0994 31.2149 15.0765C36.8054 13.6022 43.7272 12.329 51.7871 11.6873C52.0929 11.6619 52.3211 11.392 52.296 11.0813C52.2709 10.7707 52.0052 10.5389 51.6993 10.5644C40.3929 11.4633 31.9494 13.5665 26.8552 15.1732C20.8786 17.0575 16.3309 19.2626 14.6964 21.0679C13.7087 22.1603 13.295 23.2578 13.468 24.3323C13.7387 26.0078 15.3607 26.9245 15.4309 26.9627C15.5162 27.0085 15.6064 27.0314 15.6967 27.0314C15.8922 27.0314 16.0828 26.927 16.183 26.7386C16.3309 26.4661 16.2332 26.1249 15.9649 25.9747C15.9524 25.9671 14.7415 25.2745 14.5635 24.1413C14.4507 23.4284 14.7691 22.6492 15.5137 21.8293C16.9251 20.271 21.8338 17.717 29.6304 15.5068C27.151 19.5325 25.2357 23.7365 23.8092 27.4185C20.5652 28.5159 18.9056 29.0328 18.8881 29.0405C18.5947 29.1321 18.4293 29.4453 18.5195 29.7432C18.5922 29.9851 18.8129 30.143 19.0485 30.143C19.1012 30.143 19.1563 30.1354 19.2115 30.1175C19.229 30.1124 20.6053 29.6847 23.2953 28.7807C22.7889 30.1557 22.3552 31.4391 21.9917 32.5875C20.3647 37.7081 19.6978 41.6625 19.6928 41.7007C19.6376 42.0063 19.8382 42.2991 20.139 42.3551C20.1716 42.3602 20.2067 42.3653 20.2393 42.3653C20.5026 42.3653 20.7357 42.1743 20.7833 41.9019C20.7909 41.8662 21.4477 37.9678 23.0547 32.9134C23.4884 31.5486 24.0198 29.9928 24.6566 28.3198C24.9324 28.2256 25.2207 28.1289 25.519 28.0245Z" fill="white"/>
<path d="M90.3367 28.2638C90.0534 28.1466 89.73 28.2841 89.6122 28.5719C88.3462 31.7038 84.6835 34.7899 82.9763 34.7136C82.6127 34.6983 82.4097 34.5379 82.2969 34.1737C82.1013 33.5499 82.8208 31.0189 83.1267 29.9367C83.2295 29.5751 83.3172 29.2645 83.3749 29.0353C83.4501 28.7323 83.5779 28.2256 83.1192 28.0168C83.0114 27.9684 82.6353 27.8462 82.3345 28.335C81.3994 29.8552 79.9102 31.4619 78.2531 32.7402C76.9871 33.7154 76.0771 34.1534 75.5957 34.296C75.5005 34.324 75.4102 34.2399 75.4303 34.1406C75.5205 33.6976 75.7662 32.9948 75.9442 32.483C76.4707 30.9756 76.967 29.5496 76.4481 28.7425C76.3077 28.526 76.0344 28.2587 75.5255 28.2205C74.0138 28.1084 72.0584 30.5402 69.8422 33.5423C70.0152 33.0024 70.2007 32.4422 70.3562 31.9686C70.6094 31.1996 70.85 30.4739 71.018 29.9163C71.2837 29.0353 71.3815 28.6635 71.0807 28.3758C70.9177 28.2179 70.6821 28.1746 70.4715 28.2587C70.2584 28.3452 70.1456 28.4827 69.3433 29.5267C68.4985 30.6242 67.2224 32.2844 65.9364 33.5805C63.9934 35.5411 63.2564 35.4163 63.0759 35.3298C63.0684 35.3247 62.3188 34.7925 64.0235 29.2543C64.0561 29.1524 64.0787 29.0709 64.0962 29.0149C64.2592 28.4675 63.8731 28.279 63.7929 28.2459C63.5246 28.1364 63.2213 28.2536 63.0859 28.5209C62.9932 28.689 61.8826 30.4485 60.5388 32.236C58.245 35.2865 57.2522 35.811 56.9338 35.895C56.5728 35.9893 56.3171 35.9714 56.1717 35.8416C55.9085 35.6073 55.8909 34.9758 55.9235 34.7085L55.9285 34.6626C55.9912 33.2723 57.0291 29.9239 58.1823 26.5832C60.5363 25.8244 61.0728 25.776 61.0728 25.776C61.0728 25.776 61.509 25.6792 61.4589 25.1445C61.4088 24.6098 61.0578 24.648 61.0578 24.648C60.95 24.6505 60.4737 24.6913 58.6436 25.2566C59.9873 21.4549 61.3335 18.0148 61.3586 17.9461C61.4714 17.6558 61.3335 17.3299 61.0478 17.2153C60.762 17.1007 60.4411 17.2408 60.3283 17.5311C60.2129 17.8264 58.7188 21.6484 57.3149 25.6818C56.9188 25.8117 56.48 25.9593 55.9962 26.1249C52.0302 27.482 50.7742 27.5813 50.7416 27.5839C50.4382 27.5992 50.2026 27.8614 50.2151 28.1695C50.2277 28.4725 50.4733 28.7094 50.7692 28.7094C50.7767 28.7094 50.7842 28.7094 50.7917 28.7094C50.9246 28.7043 52.2032 28.6151 56.3497 27.1943C56.5252 27.1357 56.6931 27.0772 56.8536 27.0237C56.0188 29.4962 55.2767 31.9075 54.9658 33.5015C54.9633 33.5041 54.9633 33.5041 54.9608 33.5066C52.7371 35.9434 50.4182 36.9288 49.6636 36.6768C49.5583 36.6411 49.443 36.58 49.4129 36.3025C49.3402 35.6557 49.7563 34.8536 50.1249 34.1457C50.5536 33.3182 50.9246 32.6052 50.5686 32.0068C50.2377 31.4492 49.4806 31.4492 49.2324 31.4492C48.9015 31.4492 48.6056 31.4288 48.3399 31.3932C48.5455 30.6089 48.3575 30.0996 48.1318 29.7915C47.8009 29.3383 47.2218 29.1142 46.6201 29.2033C46.0911 29.2823 45.685 29.5853 45.5321 30.0156C45.3767 30.4459 45.4469 30.9043 45.7226 31.3091C45.9583 31.6503 46.3243 31.9304 46.7981 32.1392C45.5847 34.2934 42.7819 37.4967 40.8817 38.1231C40.7764 38.1587 40.6761 38.1842 40.5808 38.202C40.2323 38.2657 39.9215 37.9652 39.9691 37.6087C39.9992 37.3897 40.0569 37.0969 40.1571 36.7048C40.3627 35.9052 40.6761 34.9835 40.9544 34.1686C41.5385 32.4499 41.6688 32.0323 41.4583 31.6707C41.368 31.5154 41.2151 31.4084 41.0421 31.3804C40.5733 31.3015 40.3502 31.6096 39.1193 33.3156C37.6502 35.3527 34.5917 39.5923 32.8894 39.6228C32.2351 39.6356 32.0371 39.3733 31.9744 39.2867C31.5858 38.7698 31.7738 37.6877 31.8716 37.3439C32.3128 35.7601 32.7716 34.2807 33.2404 32.9133C34.7045 31.7497 36.0883 30.4612 37.1011 29.1244C39.3574 26.1478 41.9321 22.2163 41.3655 20.3829C41.2251 19.9246 40.9092 19.6037 40.453 19.4561C40.102 19.3415 39.7134 19.4 39.2972 19.6267C37.5323 20.5917 34.7646 25.1012 32.3028 32.2156C28.798 34.9427 24.8596 36.9569 24.8044 36.9849C24.5312 37.1249 24.4184 37.4636 24.5562 37.7411C24.6941 38.0187 25.0275 38.1333 25.3008 37.9932C25.5064 37.8888 28.5473 36.333 31.6836 34.0846C31.3827 35.0268 31.0894 36.0096 30.8061 37.0307C30.751 37.2191 30.2922 38.9022 31.0894 39.9666C31.3577 40.3256 31.8816 40.7483 32.8468 40.7483C32.8669 40.7483 32.8869 40.7483 32.9095 40.7483C34.9 40.7127 37.3418 37.6596 39.7009 34.4131C38.8385 36.9925 38.7031 38.3344 39.5028 39.0092C39.9716 39.4039 40.5056 39.4319 41.2276 39.1925C43.534 38.4286 46.6377 34.8205 47.8912 32.4601C48.2998 32.5339 48.751 32.5721 49.2324 32.5721C49.4229 32.5721 49.5332 32.5899 49.5959 32.6078C49.5558 32.8267 49.3126 33.2953 49.1446 33.6186C48.7235 34.4284 48.1995 35.4393 48.3123 36.4298C48.3875 37.0867 48.746 37.5552 49.3201 37.7462C49.5082 37.8099 49.7162 37.8379 49.9419 37.8379C51.2279 37.8379 53.0731 36.8525 54.8104 35.2432C54.848 35.7015 54.9934 36.2923 55.4346 36.687C55.6527 36.883 56.0062 37.0791 56.5352 37.0791C56.7333 37.0791 56.9589 37.0511 57.2096 36.9849C57.5681 36.8907 58.6561 36.6055 61.4589 32.8649C61.6946 32.5517 61.9227 32.236 62.1433 31.9304C61.5567 34.5633 61.7146 35.9256 62.6046 36.3483C62.8177 36.4476 63.0408 36.496 63.2765 36.496C64.9962 36.496 67.2776 33.9599 69.4286 31.2302C69.3859 31.3575 69.3458 31.4823 69.3057 31.6045C68.0698 35.345 68.0171 35.7092 68.2754 36.0758C68.3857 36.2337 68.5662 36.3254 68.7542 36.3254C69.1603 36.3254 69.3709 36.0555 70.5667 34.4309C71.3489 33.3691 72.3216 32.0501 73.2768 30.9909C74.7007 29.4147 75.2924 29.3281 75.4403 29.3383C75.4904 29.3434 75.5155 29.351 75.5155 29.351C75.5155 29.3536 75.6308 29.5114 75.4729 30.2346C75.3526 30.7897 75.1194 31.4568 74.8938 32.101C74.6707 32.7427 74.4576 33.3487 74.3523 33.8504C74.1818 34.6575 74.3397 35.1719 74.8161 35.3807C75.8088 35.8136 77.7417 34.5251 78.8047 33.718C79.84 32.9311 80.8178 32.0221 81.6551 31.0749C81.259 32.5899 81.0258 33.8351 81.2339 34.5048C81.4896 35.3247 82.0888 35.7957 82.9236 35.8314C82.9562 35.8339 82.9888 35.8339 83.0239 35.8339C85.3955 35.8339 89.2663 32.3684 90.6326 28.992C90.7554 28.7119 90.62 28.3834 90.3367 28.2638ZM39.8262 20.6248C39.9616 20.551 40.0518 20.5306 40.097 20.5306C40.107 20.5306 40.117 20.5306 40.122 20.5332C40.2298 20.5688 40.28 20.6172 40.3126 20.7241C40.5482 21.488 39.6206 23.9681 36.2262 28.442C35.612 29.2517 34.8449 30.0487 34 30.8101C36.2763 24.7753 38.6053 21.2945 39.8262 20.6248ZM47.2669 31.1207C46.9485 30.9832 46.7405 30.8202 46.6352 30.6675C46.6352 30.6649 46.6327 30.6649 46.6327 30.6624C46.5449 30.5325 46.6201 30.3517 46.773 30.3237C46.8081 30.3186 46.8432 30.3135 46.8808 30.3135C46.9686 30.3135 47.0613 30.3314 47.1441 30.3797C47.3697 30.5096 47.3446 30.8355 47.2669 31.1207Z" fill="white"/>
<path d="M41.6089 27.4948L41.313 28.47C41.2228 28.7679 41.3882 29.0837 41.679 29.1728C41.7342 29.1906 41.7894 29.1983 41.842 29.1983C42.0802 29.1983 42.2983 29.0429 42.371 28.801L42.6668 27.8258C42.757 27.5279 42.5916 27.2122 42.3008 27.123C42.0075 27.0288 41.6991 27.1969 41.6089 27.4948Z" fill="white"/>
<path d="M64.307 25.9849C64.3621 26.0027 64.4173 26.0103 64.4699 26.0103C64.7081 26.0103 64.9262 25.855 64.9989 25.6131L65.2947 24.6379C65.385 24.34 65.2195 24.0242 64.9287 23.9351C64.6354 23.8434 64.3245 24.0115 64.2368 24.3069L63.941 25.2821C63.8482 25.5775 64.0137 25.8932 64.307 25.9849Z" fill="white"/>
<path d="M83.7536 25.771C83.8088 25.7888 83.8639 25.7964 83.9166 25.7964C84.1547 25.7964 84.3728 25.6411 84.4455 25.3992L84.7414 24.424C84.8316 24.1261 84.6662 23.8103 84.3753 23.7212C84.082 23.6295 83.7711 23.7976 83.6834 24.093L83.3876 25.0682C83.2948 25.3636 83.4603 25.6793 83.7536 25.771Z" fill="white"/>
</g>
</g>
<defs>
<filter id="filter0_f_1122_43923" x="-4.85324" y="2.7698" width="113.82" height="55.3994" filterUnits="userSpaceOnUse" color-interpolation-filters="sRGB">
<feFlood flood-opacity="0" result="BackgroundImageFix"/>
<feBlend mode="normal" in="SourceGraphic" in2="BackgroundImageFix" result="shape"/>
<feGaussianBlur stdDeviation="7.07115" result="effect1_foregroundBlur_1122_43923"/>
</filter>
<filter id="filter1_f_1122_43923" x="-8.11685" y="4.60794" width="120.347" height="56.8254" filterUnits="userSpaceOnUse" color-interpolation-filters="sRGB">
<feFlood flood-opacity="0" result="BackgroundImageFix"/>
<feBlend mode="normal" in="SourceGraphic" in2="BackgroundImageFix" result="shape"/>
<feGaussianBlur stdDeviation="8.70296" result="effect1_foregroundBlur_1122_43923"/>
</filter>
<filter id="filter2_f_1122_43923" x="30.6818" y="10.7558" width="53.6208" height="38.0782" filterUnits="userSpaceOnUse" color-interpolation-filters="sRGB">
<feFlood flood-opacity="0" result="BackgroundImageFix"/>
<feBlend mode="normal" in="SourceGraphic" in2="BackgroundImageFix" result="shape"/>
<feGaussianBlur stdDeviation="3.80754" result="effect1_foregroundBlur_1122_43923"/>
</filter>
<filter id="filter3_dddd_1122_43923" x="1.46312" y="5.12315" width="105.535" height="54.64" filterUnits="userSpaceOnUse" color-interpolation-filters="sRGB">
<feFlood flood-opacity="0" result="BackgroundImageFix"/>
<feColorMatrix in="SourceAlpha" type="matrix" values="0 0 0 0 0 0 0 0 0 0 0 0 0 0 0 0 0 0 127 0" result="hardAlpha"/>
<feOffset dx="7.61509" dy="3.26361"/>
<feGaussianBlur stdDeviation="4.35148"/>
<feColorMatrix type="matrix" values="0 0 0 0 0.894118 0 0 0 0 0 0 0 0 0 1 0 0 0 1 0"/>
<feBlend mode="normal" in2="BackgroundImageFix" result="effect1_dropShadow_1122_43923"/>
<feColorMatrix in="SourceAlpha" type="matrix" values="0 0 0 0 0 0 0 0 0 0 0 0 0 0 0 0 0 0 127 0" result="hardAlpha"/>
<feOffset dx="-3.26361" dy="4.35148"/>
<feGaussianBlur stdDeviation="3.26361"/>
<feColorMatrix type="matrix" values="0 0 0 0 1 0 0 0 0 0.258333 0 0 0 0 0.792334 0 0 0 0.33 0"/>
<feBlend mode="normal" in2="effect1_dropShadow_1122_43923" result="effect2_dropShadow_1122_43923"/>
<feColorMatrix in="SourceAlpha" type="matrix" values="0 0 0 0 0 0 0 0 0 0 0 0 0 0 0 0 0 0 127 0" result="hardAlpha"/>
<feOffset dx="0.364334" dy="1.45733"/>
<feGaussianBlur stdDeviation="0.728667"/>
<feColorMatrix type="matrix" values="0 0 0 0 0.991835 0 0 0 0 0.191667 0 0 0 0 1 0 0 0 0.88 0"/>
<feBlend mode="normal" in2="effect2_dropShadow_1122_43923" result="effect3_dropShadow_1122_43923"/>
<feColorMatrix in="SourceAlpha" type="matrix" values="0 0 0 0 0 0 0 0 0 0 0 0 0 0 0 0 0 0 127 0" result="hardAlpha"/>
<feOffset dx="-3.26361" dy="3.26361"/>
<feGaussianBlur stdDeviation="4.35148"/>
<feColorMatrix type="matrix" values="0 0 0 0 0.790917 0 0 0 0 0.195833 0 0 0 0 1 0 0 0 1 0"/>
<feBlend mode="normal" in2="effect3_dropShadow_1122_43923" result="effect4_dropShadow_1122_43923"/>
<feBlend mode="normal" in="SourceGraphic" in2="effect4_dropShadow_1122_43923" result="shape"/>
</filter>
<clipPath id="clip0_1122_43923">
<rect width="104" height="64" fill="white"/>
</clipPath>
</defs>
</svg>
